<?xml version="1.0" encoding="UTF-8"?>
<svg id="Layer_2" data-name="Layer 2" xmlns="http://www.w3.org/2000/svg" viewBox="0 0 602.66 603.51">
  <defs>
    <style>
      .cls-1 {
        fill: #efadff;
      }
    </style>
  </defs>
  <g id="Layer_1-2" data-name="Layer 1">
    <path class="cls-1" d="M129.69.49c20.49.44,43.65-.16,64.44-.17l141.5-.02c23.33,0,52.86-.83,75.82.28-.09,5.24-.11,10.48-.04,15.72.61,48.97,18.12,93.76,53.61,128.09,27.63,26.74,61.46,43.75,99.86,48.12,11.53,1.31,25.35,1.06,37.09.87.76,54.49-.24,109.99.11,164.62.4,25.76.55,51.53.46,77.29.03,20.97,1.08,43.52-3.33,64.01-12.17,56.51-63.72,100.27-121.32,103.35-3.85.41-7.76.43-11.63.44-16.33.04-32.65.02-48.98.04l-118.92.12-111.51.03c-55.08.06-96.59,5.11-142.09-34.06-25.56-22.32-41.34-53.77-43.95-87.6-1.49-20.62-.47-51.99-.47-73.66v-137.35s0-95.86,0-95.86c-.02-18.81-1.04-47.74,2.07-65.06,3.96-23.34,14.33-45.11,29.95-62.89C58.16,17.18,91.09,3.15,129.69.49Z"/>
  </g>
</svg>