<?xml version="1.0" encoding="utf-8" ?><svg xmlns="http://www.w3.org/2000/svg" xmlns:xlink="http://www.w3.org/1999/xlink" width="1301" height="1301" viewBox="0 0 1301 1301"><path fill="#EFADFF" transform="matrix(1.27051 0 0 1.27051 0 3.05176e-05)" d="M376.818 274.716C392.949 275.063 411.175 274.591 427.535 274.586L538.908 274.568C557.274 274.567 580.51 273.912 598.581 274.788C598.509 278.911 598.498 283.035 598.549 287.159C599.03 325.704 612.813 360.953 640.741 387.978C662.488 409.022 689.115 422.413 719.337 425.85C728.411 426.882 739.29 426.682 748.532 426.536C749.128 469.424 748.343 513.106 748.618 556.103C748.931 576.379 749.052 596.659 748.981 616.937C749.006 633.44 749.834 651.194 746.363 667.315C736.787 711.79 696.208 746.236 650.877 748.659C647.845 748.978 644.769 748.998 641.723 749.006C628.873 749.038 616.023 749.022 603.172 749.035L509.573 749.127L421.807 749.154C378.458 749.202 345.785 753.175 309.972 722.345C289.853 704.781 277.431 680.022 275.379 653.393C274.209 637.166 275.01 612.47 275.01 595.42L275.012 487.317L275.003 411.87C274.984 397.061 274.186 374.298 276.631 360.661C279.747 342.294 287.907 325.156 300.202 311.16C320.517 287.855 346.435 276.815 376.818 274.716Z"/></svg>