<?xml version="1.0" encoding="UTF-8"?>
<svg id="Layer_2" data-name="Layer 2" xmlns="http://www.w3.org/2000/svg" viewBox="0 0 2961.73 622">
  <defs>
    <style>
      .cls-1 {
        fill: #efadff;
      }
    </style>
  </defs>
  <g id="Layer_1-2" data-name="Layer 1">
    <g>
      <g>
        <path class="cls-1" d="M1285.63,77.86v488.38c0,3.13-2.51,5.64-5.65,5.64h-111.68c-1.89,0-3.67-.97-4.72-2.55l-203.48-307.77v304.68c0,3.13-2.51,5.64-5.65,5.64h-109.09c-3.13,0-5.65-2.51-5.65-5.64V77.86c0-3.13,2.51-5.64,5.65-5.64h111.68c1.89,0,3.67.97,4.72,2.55l203.48,309.9V77.86c0-3.13,2.51-5.64,5.65-5.64h109.09c3.13,0,5.65,2.51,5.65,5.64Z"/>
        <path class="cls-1" d="M1517.92,576.83c-38.48,0-73.12-8.31-103.99-24.92-30.86-16.62-55.18-40.11-73.01-70.48-17.79-30.37-26.72-66.42-26.72-108.19s9.01-78.52,27.07-108.89c18.06-30.37,42.73-53.75,74.09-70.09,31.32-16.38,66.24-24.54,104.71-24.54s74.67,8.19,105.76,24.54c31.09,16.38,55.69,39.76,73.71,70.09,18.06,30.37,27.07,66.66,27.07,108.89s-9.17,77.82-27.42,108.19c-18.29,30.37-43.2,53.87-74.79,70.48-31.6,16.62-67.09,24.92-106.5,24.92ZM1518.65,472.23c14.69,0,28.62-3.56,41.68-10.67,13.07-7.11,23.63-18.16,31.71-33.08,8.08-14.95,12.1-33.58,12.1-55.87s-4.03-40.69-12.1-55.18c-8.08-14.45-18.41-25.27-30.98-32.38-12.57-7.11-26.26-10.66-40.95-10.66s-28.38,3.56-40.95,10.66c-12.57,7.11-22.78,17.93-30.63,32.38-7.85,14.49-11.76,32.85-11.76,55.18s3.67,40.92,11.06,55.87c7.35,14.95,17.32,25.97,29.93,33.08,12.57,7.11,26.22,10.67,40.96,10.67h-.08Z"/>
        <path class="cls-1" d="M1950.28,576.83c-38.48,0-73.12-8.31-103.98-24.92-30.86-16.62-55.19-40.11-73.01-70.48-17.79-30.37-26.72-66.42-26.72-108.19s9.01-78.52,27.07-108.89c18.06-30.37,42.73-53.75,74.09-70.09,31.32-16.38,66.24-24.54,104.72-24.54s74.67,8.19,105.76,24.54c31.09,16.38,55.69,39.76,73.7,70.09,18.06,30.37,27.07,66.66,27.07,108.89s-9.16,77.82-27.42,108.19c-18.29,30.37-43.19,53.87-74.79,70.48-31.59,16.62-67.09,24.92-106.5,24.92h0ZM1950.98,472.23c14.69,0,28.62-3.56,41.68-10.67,13.07-7.11,23.63-18.16,31.71-33.08,8.08-14.95,12.1-33.58,12.1-55.87s-4.02-40.69-12.1-55.18c-8.08-14.45-18.41-25.27-30.98-32.38-12.57-7.11-26.26-10.66-40.95-10.66s-28.39,3.56-40.95,10.66c-12.57,7.11-22.78,17.93-30.63,32.38-7.85,14.49-11.76,32.85-11.76,55.18s3.67,40.92,11.06,55.87c7.35,14.95,17.32,25.97,29.93,33.08,12.57,7.11,26.22,10.67,40.95,10.67h-.07Z"/>
        <path class="cls-1" d="M2182.18,566.24V50.81c0-3.13,2.51-5.64,5.65-5.64h109.08c3.13,0,5.65,2.51,5.65,5.64v279.06c21.85-5.22,42.61-15.07,62.34-29.52,19.68-14.45,36.69-32.5,50.92-54.1,13.42-20.36,22.86-42.7,28.27-67.08.58-2.59,2.82-4.44,5.5-4.44h116.16c3.75,0,6.5,3.59,5.45,7.19-8.08,27.2-19.88,52.94-35.35,77.13-16.86,26.35-36.58,49.46-59.13,69.4-22.54,19.94-46.17,35.12-70.88,45.56,18.99,4.75,37.74,13.52,56.26,26.35,18.52,12.83,35.73,28.13,51.62,45.91,15.9,17.77,29.43,37.37,40.61,58.73,10.05,19.28,17.32,39.34,21.81,60.16.73,3.48-1.97,6.76-5.57,6.76h-117.52c-2.63,0-4.88-1.85-5.49-4.4-4.33-18.7-10.87-35.97-19.68-51.82-9.52-17.08-20.77-32.15-33.84-45.21-13.07-13.06-27.42-23.61-43.08-31.69-15.66-8.08-31.82-13.29-48.45-15.65v143.12c0,3.13-2.52,5.64-5.65,5.64h-109.09c-3.13,0-5.65-2.51-5.65-5.64l.04-.04Z"/>
        <path class="cls-1" d="M2753.03,576.83c-38.48,0-73.12-8.31-103.99-24.92-30.86-16.62-55.22-40.11-73-70.48-17.83-30.37-26.72-66.42-26.72-108.19s9.01-78.52,27.06-108.89c18.06-30.37,42.73-53.75,74.09-70.09,31.36-16.38,66.24-24.54,104.72-24.54s74.67,8.19,105.76,24.54c31.09,16.38,55.68,39.76,73.7,70.09,18.06,30.37,27.07,66.66,27.07,108.89s-9.16,77.82-27.42,108.19c-18.29,30.37-43.23,53.87-74.79,70.48-31.6,16.62-67.09,24.92-106.5,24.92h0ZM2753.72,472.23c14.69,0,28.61-3.56,41.68-10.67,13.07-7.11,23.63-18.16,31.71-33.08,8.08-14.95,12.1-33.58,12.1-55.87s-4.02-40.69-12.1-55.18c-8.08-14.45-18.41-25.27-30.98-32.38-12.61-7.11-26.26-10.66-40.95-10.66s-28.39,3.56-40.96,10.66c-12.61,7.11-22.77,17.93-30.62,32.38-7.85,14.49-11.76,32.85-11.76,55.18s3.67,40.92,11.06,55.87c7.34,14.95,17.32,25.97,29.93,33.08,12.57,7.11,26.22,10.67,40.95,10.67h-.07Z"/>
      </g>
      <path class="cls-1" d="M133.57.5c21.11.45,44.96-.16,66.37-.17l145.74-.02c24.03,0,54.44-.86,78.08.29-.09,5.4-.11,10.8-.04,16.2.63,50.47,18.67,96.63,55.21,132.02,28.46,27.56,63.3,45.09,102.85,49.59,11.87,1.35,26.11,1.09,38.2.9.78,56.16-.25,113.36.11,169.66.41,26.55.57,53.1.47,79.66.03,21.61,1.12,44.86-3.43,65.97-12.53,58.24-65.63,103.34-124.95,106.52-3.97.42-7.99.44-11.98.45-16.82.04-33.63.02-50.45.04l-122.48.12-114.85.03c-56.72.06-99.48,5.27-146.34-35.1-26.33-23-42.58-55.42-45.27-90.29-1.53-21.25-.48-53.59-.48-75.91v-141.55s0-98.79,0-98.79c-.02-19.39-1.07-49.2,2.13-67.06,4.08-24.05,14.76-46.49,30.84-64.82C59.9,17.71,93.81,3.25,133.57.5Z"/>
      <path class="cls-1" d="M133.57.5c21.11.45,44.96-.16,66.37-.17l145.74-.02c24.03,0,54.44-.86,78.08.29-.09,5.4-.11,10.8-.04,16.2.63,50.47,18.67,96.63,55.21,132.02,28.46,27.55,63.3,45.09,102.85,49.59,11.87,1.35,26.11,1.09,38.2.9.78,56.16-.25,113.36.11,169.66.41,26.55.57,53.1.47,79.66.03,21.61,1.12,44.86-3.43,65.97-12.53,58.24-65.63,103.34-124.95,106.52-3.97.42-7.99.44-11.98.45-16.82.04-33.63.02-50.45.04l-122.48.12-114.85.03c-56.72.06-99.48,5.27-146.34-35.1-26.33-23-42.58-55.42-45.27-90.29-1.53-21.25-.48-53.59-.48-75.91v-141.55s0-98.79,0-98.79c-.02-19.39-1.07-49.2,2.13-67.06,4.08-24.05,14.76-46.49,30.84-64.82C59.9,17.71,93.81,3.25,133.57.5Z"/>
    </g>
  </g>
</svg>