<svg preserveAspectRatio="none" width="100%" height="100%" overflow="visible" style="display: block;" viewBox="0 0 35 31" fill="none" xmlns="http://www.w3.org/2000/svg">
<g id="Like Icon">
<path id="Vector" opacity="0.5" d="M18.3074 3.79009C17.8474 4.19009 17.1414 4.19009 16.6834 3.79009C13.1194 0.690075 7.82338 0.574074 4.18536 4.44809C-3.78268 14.5381 7.78538 23.4422 15.4154 28.8382C16.0236 29.2687 16.7503 29.4999 17.4954 29.4999C18.2405 29.4999 18.9673 29.2687 19.5754 28.8382C27.2615 23.4162 38.7755 14.5381 30.8055 4.44809C27.1695 0.574074 21.8695 0.690075 18.3054 3.79009" fill="var(--fill-0, black)"/>
<path id="Vector_2" d="M5.32136 5.42812C8.36937 2.2281 12.7154 2.3281 15.6994 4.92212C16.1987 5.35272 16.8361 5.5896 17.4954 5.5896C18.1547 5.5896 18.7921 5.35272 19.2914 4.92212C22.2734 2.3261 26.6235 2.2301 29.6675 5.42812C31.4415 7.69413 32.0595 9.78414 31.9955 11.7021C31.9295 13.6662 31.1435 15.6182 29.8235 17.5462C27.1535 21.4522 22.5754 24.8862 18.7094 27.6122C18.3545 27.8637 17.9303 27.9987 17.4954 27.9987C17.0605 27.9987 16.6363 27.8637 16.2814 27.6122C12.4434 24.9002 7.86537 21.4642 5.18735 17.5562C3.86535 15.6242 3.07334 13.6682 3.00534 11.7042C2.93534 9.78414 3.54935 7.69213 5.32136 5.42812ZM17.4954 2.5121C13.3654 -0.935915 7.25937 -1.01992 3.09134 3.42011L3.04734 3.46811L3.00734 3.51811C0.827333 6.27812 -0.092672 9.06814 0.00732848 11.8102C0.103329 14.5202 1.18733 17.0222 2.71334 19.2502C5.73536 23.6662 10.7534 27.3802 14.5494 30.0622C16.3194 31.3123 18.6694 31.3122 20.4394 30.0642C24.2615 27.3682 29.2835 23.6522 32.2995 19.2402C33.8235 17.0122 34.9015 14.5122 34.9935 11.8042C35.0855 9.06414 34.1615 6.27812 31.9815 3.51811L31.9415 3.46811L31.8975 3.42011C27.7315 -1.01992 21.6214 -0.935915 17.4954 2.5121Z" fill="var(--fill-0, white)"/>
</g>
</svg>
