<svg preserveAspectRatio="none" width="100%" height="100%" overflow="visible" style="display: block;" viewBox="0 0 7 7" fill="none" xmlns="http://www.w3.org/2000/svg">
<path id="Vector" d="M3.49996 5.7836L1.63833 6.96424C1.58363 6.99261 1.53286 7.0041 1.48602 6.99871C1.43952 6.99297 1.39422 6.97609 1.35012 6.94808C1.30567 6.91936 1.27216 6.87878 1.2496 6.82636C1.22703 6.77393 1.22498 6.71666 1.24345 6.65454L1.73885 4.44085L0.100317 2.9489C0.0541611 2.9094 0.0237324 2.86218 0.00903092 2.80724C-0.00567059 2.7523 -0.00242256 2.6997 0.018775 2.64943C0.0399725 2.59916 0.0681789 2.55786 0.103394 2.52555C0.138951 2.49431 0.186817 2.47312 0.24699 2.46199L2.40914 2.26378L3.25225 0.167508C3.2755 0.108261 3.30901 0.065531 3.35277 0.0393186C3.39653 0.0131062 3.4456 0 3.49996 0C3.55432 0 3.60355 0.0131062 3.64766 0.0393186C3.69176 0.065531 3.72509 0.108261 3.74766 0.167508L4.59077 2.26378L6.75241 2.46199C6.81293 2.47276 6.86096 2.49413 6.89652 2.52609C6.93208 2.55768 6.96045 2.5988 6.98165 2.64943C7.00251 2.6997 7.00558 2.7523 6.99088 2.80724C6.97618 2.86218 6.94575 2.9094 6.8996 2.9489L5.26106 4.44085L5.75647 6.65454C5.77561 6.71594 5.77373 6.77303 5.75083 6.82582C5.72792 6.8786 5.69424 6.91918 5.6498 6.94754C5.60603 6.97627 5.56073 6.99332 5.51389 6.99871C5.4674 7.0041 5.41679 6.99261 5.36209 6.96424L3.49996 5.7836Z" fill="var(--fill-0, #505050)"/>
</svg>
