<svg width="16" height="16" viewBox="0 0 16 16" fill="none" xmlns="http://www.w3.org/2000/svg">
<rect width="16" height="16" fill="white"/>
<g clip-path="url(#clip0_1_278)">
<path d="M8.86358 9.37021C8.21328 8.71992 7.83084 8.92098 7.30287 9.57198C6.4958 10.5675 6.06555 12.0649 6.00579 13.3346C5.98962 13.6826 6.06274 14.1374 6.02829 14.4503C5.99736 14.7265 5.83707 14.9065 5.56078 14.9487C4.60748 14.8875 3.55224 15.0302 2.61019 14.9494C2.20103 14.9143 2.10683 14.6584 2.06464 14.2998C1.96974 13.4913 1.99575 12.4719 2.03793 11.655C2.17924 8.89637 2.89351 5.92399 4.45914 3.62652C5.87503 1.54768 7.94192 -0.0573246 10.3139 1.8556C12.7168 3.79383 13.945 7.79122 14.2424 10.7664C14.3507 11.8456 14.44 13.3845 14.2867 14.446C14.2417 14.7603 14.0723 14.9466 13.7475 14.9747C12.8181 14.9128 11.7896 15.0542 10.8728 14.9747C10.6015 14.9515 10.3589 14.7898 10.3273 14.5037C10.2851 14.1276 10.3737 13.6369 10.354 13.2312C10.2928 11.9848 9.75783 10.2652 8.86358 9.37021ZM11.675 13.8808C11.734 13.9434 11.8339 13.6312 11.8409 13.6024C12.0391 12.7869 11.9808 11.1932 11.9035 10.3348C11.715 8.23835 10.7962 4.63606 9.1701 3.2033C8.22383 2.36951 7.58548 2.73016 6.8452 3.57168C4.9379 5.7398 4.2166 10.2054 4.45492 13.0034C4.47953 13.2931 4.50554 13.6362 4.67075 13.8801C4.76074 13.8801 4.80011 13.1349 4.81346 13.0323C5.07218 11.1278 5.6599 9.018 6.97104 7.56204C7.4498 7.02985 7.99394 6.47938 8.70892 6.97009C9.93218 7.8095 10.8363 9.80257 11.2159 11.2009C11.4549 12.0825 11.5449 12.9795 11.6757 13.8808H11.675Z" fill="url(#paint0_linear_1_278)"/>
</g>
<defs>
<linearGradient id="paint0_linear_1_278" x1="11.1291" y1="3.13017" x2="1.99998" y2="14.9981" gradientUnits="userSpaceOnUse">
<stop stop-color="#00BAFF"/>
<stop offset="1" stop-color="#78DBFF"/>
</linearGradient>
<clipPath id="clip0_1_278">
<rect width="12.369" height="14" fill="white" transform="translate(2 1)"/>
</clipPath>
</defs>
</svg>
