<svg width="408" height="118" viewBox="0 0 408 118" fill="none" xmlns="http://www.w3.org/2000/svg">
<g clip-path="url(#clip0_1_277)">
<path d="M57.9229 69.9622C52.4874 64.5267 49.2907 66.2073 44.8777 71.6487C38.1318 79.9694 34.5355 92.4858 34.036 103.098C33.9009 106.007 34.512 109.809 34.2241 112.424C33.9655 114.733 32.6257 116.238 30.3164 116.59C22.3482 116.079 13.528 117.272 5.6538 116.596C2.23383 116.302 1.44642 114.163 1.09384 111.166C0.300549 104.409 0.51797 95.8882 0.870544 89.06C2.05167 66.0016 8.02193 41.1569 21.1083 21.9534C32.943 4.57732 50.2192 -8.83813 70.0456 7.15111C90.1306 23.3519 100.396 56.7642 102.882 81.6324C103.787 90.6524 104.533 103.516 103.252 112.389C102.876 115.015 101.46 116.573 98.7452 116.808C90.9768 116.29 82.3798 117.472 74.7172 116.808C72.449 116.614 70.4217 115.262 70.1573 112.87C69.8047 109.727 70.5451 105.625 70.3806 102.235C69.8693 91.8159 65.3975 77.4427 57.9229 69.9622ZM81.422 107.664C81.9156 108.187 82.75 105.578 82.8088 105.337C84.4659 98.5207 83.9782 85.1993 83.3318 78.0244C81.757 60.5015 74.0767 30.3916 60.485 18.4159C52.5756 11.4466 47.2399 14.4612 41.0523 21.495C25.11 39.6173 19.081 76.9432 21.073 100.331C21.2787 102.752 21.4961 105.619 22.8771 107.658C23.6292 107.658 23.9583 101.429 24.0699 100.572C26.2324 84.6528 31.1449 67.0182 42.1041 54.8485C46.1058 50.4002 50.654 45.7991 56.6302 49.9007C66.8548 56.917 74.4117 73.5761 77.5848 85.2639C79.5827 92.6327 80.3349 100.131 81.4279 107.664H81.422Z" fill="url(#paint0_linear_1_277)"/>
</g>
<path d="M161.112 99.1545C150.434 99.1545 139.659 95.9797 133.694 91.3618L138.985 79.6246C144.661 83.7615 153.127 86.6477 161.209 86.6477C170.444 86.6477 174.197 83.5691 174.197 79.4322C174.197 66.8292 135.041 75.4878 135.041 50.4742C135.041 39.0257 144.276 29.5013 163.421 29.5013C171.888 29.5013 180.546 31.5216 186.8 35.4661L181.989 47.2994C175.736 43.7398 169.29 42.0081 163.325 42.0081C154.089 42.0081 150.53 45.4715 150.53 49.7046C150.53 62.1151 189.686 53.5528 189.686 78.2778C189.686 89.5339 180.354 99.1545 161.112 99.1545ZM225.06 45.4715C239.587 45.4715 250.843 55.8617 250.843 72.1206C250.843 88.3794 239.587 98.7696 225.06 98.7696C218.614 98.7696 213.323 96.7493 209.475 92.5163V116.664H194.467V46.2411H208.801V52.2059C212.553 47.6842 218.133 45.4715 225.06 45.4715ZM222.463 86.4553C229.967 86.4553 235.643 81.0677 235.643 72.1206C235.643 63.1734 229.967 57.7859 222.463 57.7859C214.959 57.7859 209.282 63.1734 209.282 72.1206C209.282 81.0677 214.959 86.4553 222.463 86.4553ZM306.78 72.313C306.78 73.4675 306.588 75.103 306.492 76.3536H267.336C268.779 82.7994 274.263 86.7439 282.152 86.7439C287.635 86.7439 291.58 85.1084 295.14 81.7412L303.125 90.3997C298.314 95.8835 291.099 98.7696 281.767 98.7696C263.873 98.7696 252.232 87.5135 252.232 72.1206C252.232 56.6314 264.065 45.4715 279.843 45.4715C295.043 45.4715 306.78 55.6693 306.78 72.313ZM279.939 56.8238C273.108 56.8238 268.202 60.9607 267.144 67.5989H292.638C291.58 61.0569 286.673 56.8238 279.939 56.8238ZM347.966 46.2411H362.397L339.019 101.175C334.016 113.682 326.897 117.434 317.565 117.434C312.273 117.434 306.501 115.702 303.134 112.72L308.617 102.041C310.926 104.061 314.101 105.312 317.084 105.312C321.22 105.312 323.529 103.484 325.55 98.8659L325.742 98.3848L303.326 46.2411H318.815L333.342 81.3564L347.966 46.2411ZM380.372 98.7696C371.617 98.7696 362.766 96.3645 357.956 93.1897L362.959 82.4146C367.577 85.397 374.6 87.4173 380.949 87.4173C387.876 87.4173 390.474 85.5894 390.474 82.7032C390.474 74.2371 359.207 82.8956 359.207 62.2113C359.207 52.3983 368.058 45.4715 383.162 45.4715C390.281 45.4715 398.17 47.107 403.077 49.9932L398.074 60.672C392.975 57.7859 387.876 56.8238 383.162 56.8238C376.428 56.8238 373.541 58.9403 373.541 61.6341C373.541 70.4851 404.808 61.9227 404.808 82.3184C404.808 91.939 395.861 98.7696 380.372 98.7696Z" fill="#292D2F"/>
<defs>
<linearGradient id="paint0_linear_1_277" x1="76.8596" y1="17.8047" x2="0.553331" y2="117.003" gradientUnits="userSpaceOnUse">
<stop stop-color="#00BAFF"/>
<stop offset="1" stop-color="#78DBFF"/>
</linearGradient>
<clipPath id="clip0_1_277">
<rect width="103.387" height="117.019" fill="white" transform="translate(0.553467)"/>
</clipPath>
</defs>
</svg>
