<svg width="122" height="139" viewBox="0 0 122 139" fill="none" xmlns="http://www.w3.org/2000/svg">
<g clip-path="url(#clip0_1_273)">
<path d="M67.665 82.5176C61.2541 76.1067 57.4837 78.0889 52.2787 84.5068C44.3222 94.3207 40.0805 109.083 39.4914 121.6C39.332 125.031 40.0528 129.515 39.7132 132.599C39.4083 135.323 37.828 137.097 35.1043 137.513C25.7061 136.91 15.303 138.317 6.0158 137.52C1.98209 137.174 1.05337 134.651 0.637524 131.116C-0.29813 123.146 -0.0416915 113.096 0.374155 105.043C1.76724 77.8463 8.8089 48.543 24.2437 25.8932C38.2023 5.39893 58.5788 -10.424 81.9632 8.4346C105.653 27.5427 117.761 66.9511 120.692 96.2821C121.76 106.921 122.64 122.092 121.129 132.558C120.685 135.656 119.015 137.492 115.813 137.77C106.651 137.16 96.5109 138.553 87.4732 137.77C84.7979 137.541 82.4068 135.947 82.0949 133.126C81.679 129.418 82.5523 124.58 82.3583 120.581C81.7553 108.293 76.481 91.3405 67.665 82.5176ZM95.3812 126.985C95.9634 127.602 96.9475 124.525 97.0168 124.241C98.9713 116.201 98.3961 100.489 97.6337 92.0266C95.7762 71.3591 86.7177 35.8458 70.6868 21.7209C61.358 13.501 55.0649 17.0565 47.7668 25.3526C28.9636 46.7271 21.8526 90.7514 24.2021 118.336C24.4447 121.191 24.7012 124.574 26.3299 126.979C27.217 126.979 27.6052 119.632 27.7368 118.62C30.2874 99.8445 36.0815 79.0453 49.0074 64.6917C53.7272 59.4451 59.0917 54.0183 66.1402 58.856C78.1998 67.1313 87.1128 86.78 90.8554 100.565C93.2118 109.257 94.099 118.1 95.3881 126.985H95.3812Z" fill="url(#paint0_linear_1_273)"/>
</g>
<defs>
<linearGradient id="paint0_linear_1_273" x1="90" y1="21" x2="8.48627e-06" y2="138" gradientUnits="userSpaceOnUse">
<stop stop-color="#00BAFF"/>
<stop offset="1" stop-color="#78DBFF"/>
</linearGradient>
<clipPath id="clip0_1_273">
<rect width="121.94" height="138.019" fill="white"/>
</clipPath>
</defs>
</svg>
