<?xml version="1.0" encoding="UTF-8"?>
<svg id="Layer_2" data-name="Layer 2" xmlns="http://www.w3.org/2000/svg" viewBox="0 0 365.82 383.19">
  <defs>
    <style>
      .cls-1 {
        fill: #fefefe;
      }
    </style>
  </defs>
  <g id="Layer_2-2" data-name="Layer 2">
    <g id="Layer_1-2" data-name="Layer 1-2">
      <g>
        <path d="M222.52,14.65l54.98,29.11c6.54,3.49,13.11,6.95,19.69,10.38,3.04,1.56,9.68,4.72,12.38,6.44,1.77,1.12,3.25,2.64,4.34,4.43,1.48,2.46,2.34,5.86,1.7,8.74-4.27,18.98-10.93,37.61-15.8,56.48-.52,2.02-1.13,4.32-1.79,6.19l37.7,20.32c8.3,4.44,26.64,12.01,28.9,21.52,1.19,5.01,1.59,22.6.78,27.79-.34,2.27-1.08,4.47-2.18,6.48-2.91,5.4-8.23,9.5-13.78,11.9-.2,11.26.11,22.75.14,34.03l-.21,33.27c.01,9.07.31,19.16-.11,28.13-.71,15.16-17.21,20.73-29.33,27.19-10.63,5.79-21.29,11.52-32,17.17-10.2,5.42-20.71,11.26-30.96,16.64-1.86.76-5,2.5-6.99,2.32-4.45-.47-8.81-2.82-12.59-5.13-8.32-5.07-17.11-5.78-17.93-17.5-.5-7.13-.28-14.1-.27-21.22v-58.22c-13.99-2.11-27.26-10.76-39.72-17.41-13.62-7.28-27.95-14.28-41.36-21.88l-55.51,30.15c-6.17,3.38-12.36,6.72-18.57,10.01-4.94,2.64-12.77,8.08-18.16,5.91-6.82-2.74-16.41-8.02-22.56-11.86-6.66-4.17-5.26-19.78-5.22-27.17.02-8.89.1-17.78.24-26.66.18-14.63-.23-29.38-.22-44.06-7.3-4.22-14.64-7.05-17.07-16.38-1.87-7.19-.34-14.9-.94-22.09-1.49-17.79,14.45-23.14,27.38-30.22,11.53-6.32,23.79-12.23,35.34-18.84,1.08-9.73,3.4-14.97,13.88-15.76.08,0,2.04-5.49,2.54-5.85,5.61-6.83,16.25-8.02,24.48-6.87,2.29.32,4.82.98,6.82,1.79,12.29-4.53,23.88-5.67,36.78-2.48,6.34,1.57,10.53,4.02,16.1,7.27,3.19-13.07,7.44-26.05,11.07-39.02,2.16-7.71,4.37-15.91,7.34-23.31,1.91-4.77,6.85-6.65,11.66-6.35,4.65,1.16,23.9,11.91,29.02,14.63h0Z"/>
        <path class="cls-1" d="M160.77,76.35c-1.77,7.14-6.71,20.77-5.84,26.99-5.3,1.61-14.19,6.93-19.28,9.75-11.12,6.15-22.2,12.39-33.23,18.71-7.12,4.05-14.41,7.88-21.39,12.14-6.98,4.26-7.51,14.99-.23,19.18,5.24,3.03,10.66,5.75,16.03,8.55l30.43,15.96,41.98,22.29c5.18,2.73,16.09,8.81,21.28,10.95,4.97,2.04,10.56,1.94,15.46-.27,3.25-1.46,8.88-4.82,12.18-6.67l20.32-11.3,23.89-13.22c4.07-2.25,14.6-6.91,16.97-11.1,1.27-2.26-.2-5.32,3.93-6.51,4.14-1.68,5.4-4.07,6.71-8.32,1.93-6.24,3.62-12.72,5.54-19.05l35.49,18.9c7,3.68,15.19,7.07,21.47,11.9,2.16,1.66,3.89,3.55,4.69,6.21.75,2.5.37,5.08-.92,7.34-3.63,6.37-26.63,16.9-34.17,21.06l-52.15,28.17c-13.95,7.53-24.38,15.77-40.84,16.04-17.38.28-28.31-8.16-43.09-16.11l-49.18-26.22-83.37-44.33c-7.73-4.14-15.48-8.25-23.26-12.31-9.04-4.71-33.11-14.2-16.52-28.65,3.53-3.07,12.8-7.37,17.25-9.75l33.99-18.22c3.48,5.26,5.48,6.52,11.68,7.91.42,4.39,1.01,7.3,4.62,10.36,8.63,7.31,29.42,6.82,36.48-2.29,1.3-1.65,2.13-3.62,2.42-5.7.57-3.76.49-31.35-.08-34.95-.25-1.58-.85-2.96-1.69-4.31,6.79-1.5,10.76-2.29,17.76-1.82,10.82,1.02,15.29,3.24,24.69,8.71l-.02-.02Z"/>
        <path class="cls-1" d="M178.15,121.12l26.64,14.16,44.67,23.88c6.65,3.57,13.28,7.27,20,10.7,4.55,2.32,3.43,4.68-.52,6.88-21.32,11.84-42.7,23.64-64.02,35.5-2.78,1.54-5.3,2.28-8.49,2.15-4.34-.89-29.42-14.63-34.97-17.54l-50.03-26.5c-7.64-4.06-15.31-8.05-22.95-12.1-2.34-1.24-5.07-2.4-4.83-5.34.86-1.54,2.06-2.61,3.58-3.5,9.38-5.46,19.18-10.58,28.63-15.9,8.72-4.98,17.46-9.91,26.24-14.78,4.65-2.59,12.21-7.82,17.33-7.31,5.83,2.49,12.98,6.62,18.72,9.71h0Z"/>
        <path d="M257.99,169.21c5.85,2.96,3.13,6.49-.47,7.65-4.92,1.59-34.38,19.8-36.58,19.54l-70.03-37.27c-5.92-3.15-30.26-15.06-33.94-18.85.11-2.87,4.94-5.73,7.23-6.58,5.37-1.98,30.26-17.88,33.63-17.81,33.67,16.53,66.62,36.35,100.16,53.32Z"/>
        <path class="cls-1" d="M250.9,172.94c-6.61,3.5-13.19,7.07-19.71,10.73-2.15,1.19-7.78,4.46-9.87,5.33-30.47-17.09-62.64-32.92-93.43-49.58,9.85-5.34,19.66-10.74,29.44-16.19,30.76,16.83,62.53,33.34,93.57,49.7h0Z"/>
        <path d="M181.16,178.57c1.84,5.17-4.06,7-7.55,9.05-4.2,2.47-6.6,5.61-11.88,5.33-3.96-1.13-35.87-17.72-37.19-20.07-.85-5.15,4.08-6.01,7.79-8.18,3.59-2.1,7.73-5.81,11.91-5.96,3.22.85,34.65,17.62,36.91,19.82h.01Z"/>
        <path class="cls-1" d="M172.94,180.93c-1.29.74-9.27,5.51-9.99,5.8-9.26-4.97-20.03-11.05-29.42-15.38,3.46-1.93,6.71-3.76,10.1-5.84,9.24,5.14,19.82,10.77,29.32,15.42h-.01Z"/>
        <path class="cls-1" d="M341.61,290.49c0,9.75.32,19.69-.39,29.39-.53,7.35-6.22,9.98-11.82,13-24.85,13.39-49.7,26.77-74.52,40.22-3.15,1.71-5.62,3.13-8.81.73-1.76-3.69-1.09-27.4-1.09-32.97l.02-61.44c9.21-2.52,22.64-10.83,31.45-15.59l40.64-21.78c7.59-4.11,16.91-9.55,24.54-13.28l-.03,61.73h0Z"/>
        <path class="cls-1" d="M249.8,53.06c14.42,7.64,29.75,16.14,44.3,23.31-2.1,6.6-20.73,70.9-21.66,72.1-7.52-4.1-15.16-8.18-22.77-12.12-24.71-12.81-49.05-26.58-73.89-39.14,4.34-14.59,8.58-29.22,12.7-43.88.81-2.88,7.48-27.65,8.61-28.27,17.12,9.54,35.33,18.79,52.71,28h0Z"/>
        <path class="cls-1" d="M25.28,161.56c6.91,3.61,13.8,7.26,20.67,10.95l82.13,43.65,54.74,29.2c20.18,10.76,32.2,20.08,56.76,15.44,4.08-.73,8.05-2,11.8-3.76,6.11-2.85,13.96-7.4,19.99-10.68l36.21-19.59,31.25-16.89c5.76-3.11,13.98-7.18,19.09-10.86-.14,4.53-.04,6.82-2.21,10.95-4.98,6.17-17.48,11.66-24.77,15.57l-36.03,19.33-29.04,15.67c-4.97,2.7-12.42,7.03-17.47,9.25-4.42,1.98-9.12,3.24-13.93,3.76-17.97,2-25.86-3.1-40.98-11.2l-25.75-13.8-90.42-48.15-46.11-24.37c-8.61-4.58-26.66-10.93-22.93-23.88,5.14,3.52,11.44,6.53,17.02,9.43l-.02-.02Z"/>
        <path class="cls-1" d="M129.58,237.32c-8.08,5-19.86,10.87-28.5,15.54l-31.54,17.11c-6.21,3.37-12.51,7.1-18.98,9.89-5.26,2.27-6.52-3.32-6.52-7.22.02-23.97.04-47.96.06-71.93,0-1.87-.3-6.86.21-8.37l.36-.12,84.91,45.1h0Z"/>
        <path class="cls-1" d="M247.77,37.1c-1.47.32-2.03.31-3.13,1.34-.57,1.52-.48,1.84-.46,3.51-2.37-.4-8.26-3.87-10.78-5.24-8.01-4.32-16.05-8.6-24.11-12.83-4.06-2.16-8.33-4.68-12.56-6.42-4.03-1.28-4.97-.18-5.98,3.36-7.04,24.52-14.03,49.03-21.12,73.53-1.29,4.46-2.44,5.52,1.68,7.91,4.43,2.58,8.91,4.92,13.43,7.32l24.6,13.1,41.94,22.38c6.87,3.66,13.72,7.38,20.62,10.97,1.8.94,4.32,2.09,5.44-.34,1.79-3.89,2.88-8.38,4.08-12.49l6.14-21.16c1.95-6.74,13.78-44.41,13.55-48.39-1.36-2.97-15.02-9.14-18.79-11.17-10.78-5.74-24.41-13.46-35.24-18.43,1.34-.69,2.07-.88,2.84-2.17.46-2.18-.37-2.08-.5-3.69,8.32,3.73,16.79,8.81,24.99,12.98,9.95,5.06,19.96,10.37,29.76,15.71,1.36.74,2.99,2.39,3.61,3.8-.12,3.57-.86,6.32-1.88,9.73-7.99,26.86-15.52,53.85-23.79,80.63-.51,1.65-1.62,4.8-4.12,4.11-3.08-1.21-6.17-3.04-9.09-4.63l-18.98-10.29-66.78-35.61c-6.25-3.32-14.16-7.14-19.9-11.11-2.26-1.56,3.14-17.25,3.89-19.82l9.06-31.2,7.94-27.55c1.42-4.96,2.76-9.99,4.39-14.88.65-1.96,2.23-2.13,3.98-2.15,18.41,9.2,36.9,20.14,55.27,29.19h0Z"/>
        <path class="cls-1" d="M36.05,187.57l-.05,58.57v17.48c0,2.92.16,7.29-.18,10.07l-.62.29c-2.15-1.15-6.16-3.17-8.01-4.5-1.68-4.86-1.16-14.48-1.16-19.9v-25.26c0-11.8-.56-29.99.08-41.37l.6-.27,9.34,4.9h0Z"/>
        <path class="cls-1" d="M236.94,337.98c0,10.18-.26,21.02.04,31.11l-6.74-3.49c-1.92-1.51-2.78-2.51-2.92-5.08-.48-8.39-.16-17.31-.17-25.73l-.15-53.05c3.91-.08,6.18-.18,10-.66l-.07,56.91h.01Z"/>
        <path class="cls-1" d="M112.1,107.02c-.34,1.31-1.03,2.49-2,3.43-5.25,5.05-19.56,4.2-24.82-.98-1.14-2.66-.76-20.17-.78-24.49,9.26,3.71,18.21,3.85,27.49-.14l.33-.15c0,3.52.43,19.8-.22,22.32h0Z"/>
        <path class="cls-1" d="M111.25,74.97c-2.56,4.93-13.21,4.92-18.05,4.28-2.69-.59-8.2-1.44-7.87-4.83,3.17-4.79,11.96-5.1,17.14-4.55,2.84.59,8.68,1.65,8.78,5.1Z"/>
        <path class="cls-1" d="M76.54,98.75c-1.4-.8-2.47-1.33-3.68-2.43-4.11-5.19-2.74-11.56,3.79-13.83.05,5.42.02,10.84-.11,16.26Z"/>
      </g>
    </g>
  </g>
</svg>