<?xml version="1.0" encoding="UTF-8"?>
<svg id="Layer_2" data-name="Layer 2" xmlns="http://www.w3.org/2000/svg" viewBox="0 0 366.01 383.27">
  <defs>
    <style>
      .cls-1 {
        fill: #efadff;
      }

      .cls-2 {
        fill: #fff;
      }
    </style>
  </defs>
  <g id="Layer_2-2" data-name="Layer 2">
    <g id="Layer_1-2" data-name="Layer 1-2">
      <g>
        <path d="M222.7,14.85l55,29.1c6.5,3.5,13.1,7,19.7,10.4,3,1.6,9.7,4.7,12.4,6.4,1.8,1.1,3.2,2.6,4.3,4.4,1.5,2.5,2.3,5.9,1.7,8.7-4.3,19-10.9,37.6-15.8,56.5-.5,2-1.1,4.3-1.8,6.2l37.7,20.3c8.3,4.4,26.6,12,28.9,21.5,1.2,5,1.6,22.6.8,27.8-.3,2.3-1.1,4.5-2.2,6.5-2.9,5.4-8.2,9.5-13.8,11.9-.2,11.3.1,22.8.1,34l-.2,33.3c0,9.1.3,19.2-.1,28.1-.7,15.2-17.2,20.7-29.3,27.2-10.6,5.8-21.3,11.5-32,17.2-10.2,5.4-20.7,11.3-31,16.6-1.9.8-5,2.5-7,2.3-4.4-.5-8.8-2.8-12.6-5.1-8.3-5.1-17.1-5.8-17.9-17.5-.5-7.1-.3-14.1-.3-21.2v-58.2c-14-2.1-27.3-10.8-39.7-17.4-13.6-7.3-27.9-14.3-41.4-21.9l-55.5,30.1c-6.2,3.4-12.4,6.7-18.6,10-4.9,2.6-12.8,8.1-18.2,5.9-6.8-2.7-16.4-8-22.6-11.9-6.7-4.2-5.3-19.8-5.2-27.2,0-8.9.1-17.8.2-26.7.2-14.6-.2-29.4-.2-44.1-7.3-4.2-14.6-7.1-17.1-16.4-1.9-7.2-.3-14.9-.9-22.1-1.5-17.8,14.5-23.1,27.4-30.2,10.97-6.01,22.67-11.66,33.71-17.89.53-.3,1.06-.6,1.59-.91,1.1-9.7,3.4-15,13.9-15.8,0,0,2-5.5,2.5-5.8,5.6-6.8,16.2-8,24.5-6.9,2.3.3,4.8,1,6.8,1.8,12.3-4.5,23.9-5.7,36.8-2.5,6.3,1.6,10.5,4,16.1,7.3,3.2-13.1,7.4-26,11.1-39,2.2-7.7,4.4-15.9,7.3-23.3,1.9-4.8,6.9-6.7,11.7-6.3,4.6,1.2,23.9,11.9,29,14.6h0l.2.2Z"/>
        <path class="cls-1" d="M161,76.55c-1.8,7.1-6.7,20.8-5.8,27-5.3,1.6-14.2,6.9-19.3,9.8-11.1,6.2-22.2,12.4-33.2,18.7-7.1,4.1-14.4,7.9-21.4,12.1-7,4.3-7.5,15-.2,19.2,5.2,3,10.7,5.8,16,8.6l30.4,16,42,22.3c5.2,2.7,16.1,8.8,21.3,10.9,5,2,10.6,1.9,15.5-.3,3.2-1.5,8.9-4.8,12.2-6.7l20.3-11.3,23.9-13.2c4.1-2.2,14.6-6.9,17-11.1,1.3-2.3-.2-5.3,3.9-6.5,4.1-1.7,5.4-4.1,6.7-8.3,1.9-6.2,3.6-12.7,5.5-19.1l35.5,18.9c7,3.7,15.2,7.1,21.5,11.9,2.2,1.7,3.9,3.6,4.7,6.2.8,2.5.4,5.1-.9,7.3-3.6,6.4-26.6,16.9-34.2,21.1l-52.1,28.2c-13.9,7.5-24.4,15.8-40.8,16-17.4.3-28.3-8.2-43.1-16.1l-49.2-26.2-83.4-44.3c-7.7-4.1-15.5-8.2-23.3-12.3-9-4.7-33.1-14.2-16.5-28.7,3.5-3.1,12.8-7.4,17.2-9.8l34-18.2c3.5,5.3,5.5,6.5,11.7,7.9.4,4.4,1,7.3,4.6,10.4,8.6,7.3,29.4,6.8,36.5-2.3,1.3-1.7,2.1-3.6,2.4-5.7.6-3.8.5-31.3,0-35-.2-1.6-.8-3-1.7-4.3,6.8-1.5,10.8-2.3,17.8-1.8,10.8,1,15.3,3.2,24.7,8.7h-.2Z"/>
        <path class="cls-1" d="M178.3,121.25l26.6,14.2,44.7,23.9c6.7,3.6,13.3,7.3,20,10.7,4.5,2.3,3.4,4.7-.5,6.9-21.3,11.8-42.7,23.6-64,35.5-2.8,1.5-5.3,2.3-8.5,2.1-4.3-.9-29.4-14.6-35-17.5l-50-26.5c-7.6-4.1-15.3-8.1-22.9-12.1-2.3-1.2-5.1-2.4-4.8-5.3.9-1.5,2.1-2.6,3.6-3.5,9.4-5.5,19.2-10.6,28.6-15.9,8.7-5,17.5-9.9,26.2-14.8,4.6-2.6,12.2-7.8,17.3-7.3,5.8,2.5,13,6.6,18.7,9.7h0v-.1Z"/>
        <path d="M258.2,169.35c5.9,3,3.1,6.5-.5,7.6-4.9,1.6-34.4,19.8-36.6,19.5l-70-37.3c-5.9-3.1-30.3-15.1-33.9-18.9.1-2.9,4.9-5.7,7.2-6.6,5.4-2,30.3-17.9,33.6-17.8,33.7,16.5,66.6,36.4,100.2,53.3v.2Z"/>
        <path class="cls-2" d="M251.1,173.05c-6.6,3.5-13.2,7.1-19.7,10.7-2.1,1.2-7.8,4.5-9.9,5.3-30.5-17.1-62.6-32.9-93.4-49.6,9.8-5.3,19.7-10.7,29.4-16.2,30.8,16.8,62.5,33.3,93.6,49.7h0v.1Z"/>
        <path d="M181.3,178.75c1.8,5.2-4.1,7-7.6,9.1-4.2,2.5-6.6,5.6-11.9,5.3-4-1.1-35.9-17.7-37.2-20.1-.8-5.1,4.1-6,7.8-8.2,3.6-2.1,7.7-5.8,11.9-6,3.2.9,34.6,17.6,36.9,19.8h0l.1.1Z"/>
        <path class="cls-2" d="M173.1,181.05c-1.3.7-9.3,5.5-10,5.8-9.3-5-20-11.1-29.4-15.4,3.5-1.9,6.7-3.8,10.1-5.8,9.2,5.1,19.8,10.8,29.3,15.4h0Z"/>
        <path class="cls-1" d="M341.8,290.65c0,9.8.3,19.7-.4,29.4-.5,7.4-6.2,10-11.8,13-24.9,13.4-49.7,26.8-74.5,40.2-3.1,1.7-5.6,3.1-8.8.7-1.8-3.7-1.1-27.4-1.1-33v-61.4c9.2-2.5,22.7-10.8,31.5-15.6l40.6-21.8c7.6-4.1,16.9-9.6,24.5-13.3v61.7h0v.1Z"/>
        <path class="cls-2" d="M250,53.25c14.4,7.6,29.7,16.1,44.3,23.3-2.1,6.6-20.7,70.9-21.7,72.1-7.5-4.1-15.2-8.2-22.8-12.1-24.7-12.8-49.1-26.6-73.9-39.1,4.3-14.6,8.6-29.2,12.7-43.9.8-2.9,7.5-27.6,8.6-28.3,17.1,9.5,35.3,18.8,52.7,28h.1Z"/>
        <path class="cls-1" d="M25.5,161.75c6.9,3.6,13.8,7.3,20.7,10.9l82.1,43.7,54.7,29.2c20.2,10.8,32.2,20.1,56.8,15.4,4.1-.7,8.1-2,11.8-3.8,6.1-2.9,14-7.4,20-10.7l36.2-19.6,31.2-16.9c5.8-3.1,14-7.2,19.1-10.9-.1,4.5,0,6.8-2.2,10.9-5,6.2-17.5,11.7-24.8,15.6l-36,19.3-29,15.7c-5,2.7-12.4,7-17.5,9.2-4.4,2-9.1,3.2-13.9,3.8-18,2-25.9-3.1-41-11.2l-25.8-13.8-90.4-48.2-46.1-24.4c-8.6-4.6-26.7-10.9-22.9-23.9,5.1,3.5,11.4,6.5,17,9.4h0v.3Z"/>
        <path class="cls-1" d="M129.8,237.45c-8.1,5-19.9,10.9-28.5,15.5l-31.5,17.1c-6.2,3.4-12.5,7.1-19,9.9-5.3,2.3-6.5-3.3-6.5-7.2v-71.9c0-1.9-.3-6.9.2-8.4h.4c0-.1,84.9,45,84.9,45h0Z"/>
        <path class="cls-1" d="M248,37.25c-1.5.3-2,.3-3.1,1.3-.6,1.5-.5,1.8-.5,3.5-2.4-.4-8.3-3.9-10.8-5.2-8-4.3-16.1-8.6-24.1-12.8-4.1-2.2-8.3-4.7-12.6-6.4-4-1.3-5-.2-6,3.4-7,24.5-14,49-21.1,73.5-1.3,4.5-2.4,5.5,1.7,7.9,4.4,2.6,8.9,4.9,13.4,7.3l24.6,13.1,41.9,22.4c6.9,3.7,13.7,7.4,20.6,11,1.8.9,4.3,2.1,5.4-.3,1.8-3.9,2.9-8.4,4.1-12.5l6.1-21.2c2-6.7,13.8-44.4,13.5-48.4-1.4-3-15-9.1-18.8-11.2-10.8-5.7-24.4-13.5-35.2-18.4,1.3-.7,2.1-.9,2.8-2.2.5-2.2-.4-2.1-.5-3.7,8.3,3.7,16.8,8.8,25,13,10,5.1,20,10.4,29.8,15.7,1.4.7,3,2.4,3.6,3.8-.1,3.6-.9,6.3-1.9,9.7-8,26.9-15.5,53.9-23.8,80.6-.5,1.6-1.6,4.8-4.1,4.1-3.1-1.2-6.2-3-9.1-4.6l-19-10.3-66.8-35.6c-6.2-3.3-14.2-7.1-19.9-11.1-2.3-1.6,3.1-17.2,3.9-19.8l9.1-31.2,7.9-27.5c1.4-5,2.8-10,4.4-14.9.6-2,2.2-2.1,4-2.2,18.4,9.2,36.9,20.1,55.3,29.2h.2Z"/>
        <path class="cls-1" d="M36.2,187.75v76.1c0,2.9.2,7.3-.2,10.1l-.6.3c-2.2-1.1-6.2-3.2-8-4.5-1.7-4.9-1.2-14.5-1.2-19.9v-25.3c0-11.8-.6-30,0-41.4l.6-.3,9.3,4.9h.1Z"/>
        <path class="cls-1" d="M237.1,338.15c0,10.2-.3,21,0,31.1l-6.7-3.5c-1.9-1.5-2.8-2.5-2.9-5.1-.5-8.4-.2-17.3-.2-25.7v-53c3.8,0,6-.2,9.9-.7v56.9h-.1Z"/>
        <path class="cls-2" d="M112.3,107.15c-.3,1.3-1,2.5-2,3.4-5.2,5.1-19.6,4.2-24.8-1-1.1-2.7-.8-20.2-.8-24.5,9.3,3.7,18.2,3.8,27.5-.1l.3-.2c0,3.5.4,19.8-.2,22.3h0v.1Z"/>
        <path class="cls-2" d="M111.4,75.15c-2.6,4.9-13.2,4.9-18,4.3-2.7-.6-8.2-1.4-7.9-4.8,3.2-4.8,12-5.1,17.1-4.6,2.8.6,8.7,1.7,8.8,5.1Z"/>
        <path class="cls-1" d="M76.7,98.95c-1.4-.8-2.5-1.3-3.7-2.4-4.1-5.2-2.7-11.6,3.8-13.8,0,5.4,0,10.8-.1,16.3v-.1Z"/>
      </g>
    </g>
  </g>
</svg>