<?xml version="1.0" encoding="UTF-8"?>
<svg id="Layer_2" data-name="Layer 2" xmlns="http://www.w3.org/2000/svg" viewBox="0 0 319.73 320.01">
  <defs>
    <style>
      .cls-1 {
        fill: #efadff;
      }

      .cls-2 {
        fill: #fff;
      }
    </style>
  </defs>
  <g id="Layer_2-2" data-name="Layer 2">
    <g id="uuid-5ccce482-513c-4e9b-b9bd-7171e20df254" data-name="Layer 2-2">
      <g id="Layer_1-2" data-name="Layer 1-2">
        <g>
          <path d="M313.3,156.92c-.77-16.64-7.3-29.26-19.28-40.91-6.79-6.6-14.9-8.29-22.12-13-7.03-4.59-5.21-4.6-13.96-7.1-3.49-.99-14.05-6.85-17.37-9.01-3.6-10.24-9.13-20.28-12.92-30.52-2-5.39-4.12-10.08-9.43-12.77-15.3-7.94-30.7-15.74-46.07-23.52-2.65-1.33-6.46-2.76-9.27-1.47-7.87,3.6-15.24,8.56-22.95,12.53-2.44-1.43-5.15-2.76-7.69-4.04-9.77-4.92-19.56-10.32-29.5-14.86C98.95,1.97,88.15-.66,78.21.13c-8.76.87-15.84,3.86-23.36,8.28-8.95,5.26-18.3,10.03-27.2,15.39-.35.21-6.08-2.43-6.92-2.75-5.99-2.33-12.79-.48-16.78,4.55-7.85,9.91-3.18,29.64,6.88,36.31-2.87,9.2-5.58,15.96-7.2,25.68-1.78,10.73-1.65,19.36-1.7,30.22-.07,8.6-.06,17.19.03,25.79.15,16.47-1.17,26.63,6.77,41.86,3.04,5.88,7.08,11.2,11.92,15.72,1.95,44.68,42.31,108.8,93.09,107.45,13.5-.35,29.4-12.3,41.76-18.12,9.24,2.53,21.15,3.36,30.19-.46,3.65,2.1,7.5,4.1,11.27,5.98,10.67,5.31,21.17,11.05,31.82,16.37,8.66,4.65,17.38,9.72,27.51,6.7,5.11-1.52,42.19-21.43,46.29-24.58,2.89-2.22,5.1-5.12,6.8-8.33,2.1-3.96,3.16-8.35,3.61-12.79.47-4.61.24-9.28.19-13.9l-.04-16.38c-.02-15.9.37-33.52-.03-49.26,4.35-3.99,6.33-8.25,6.48-14.2.23-9.26,1.02-15.96-6.29-22.74ZM18.81,30.17c-5.55,4.77-7.06,11.71-7.57,18.62l-.24,3.73c-4.71-7.55-7.64-20.63,2.43-25.29,3.2-.3,4.45.19,7.24,1.46-.63.48-1.25.97-1.86,1.48Z"/>
          <path class="cls-1" d="M28.63,33.13c8.63-.65,20.02,6.68,27.77,10.69l37.05,19.17c3.44,1.78,12.3,6.57,15.65,7.66,3.26-3.09,6.3-8.03,9.15-11.56,3.34-4.14,6.29-9.2,9.83-13.13,4.2.99,8.55,3.68,12.4,5.71l15.93,8.38,13.44,7c2.76,1.42,11.66,5.59,12.74,8.37,4.99,12.82,6.9,27.82,11.94,40.58,2.25,1.71,9.7,5.32,12.59,6.81l24.14,12.37c12.08,6.15,19.15,8.15,26.94,19.71,2.64,3.86,4.76,8.05,6.3,12.46,1.22,3.55,1.98,7.25,2.25,10.99.46,6.59.17,15.49.16,22.23l-.06,39.81v34.16c.03,11.95,2.53,33.05-12.26,37.68-3.13.95-6.48.99-9.63.11-4.21-1.2-14.66-6.9-19.21-9.25-10.52-5.44-21.33-10.78-31.79-16.29,5.33-2.96,8.62-5.72,12.87-10.05,25.7-28.38,17.31-76.86,2.38-108.4-14.29-30.14-38.04-59.63-70.19-71.51-31.23-11.54-58.11,1.74-69.17,32.7-9.74,5.18-24.46,13.7-32.84,20.6-11.4,9.39-15.91,26.79-16.65,41.21-14.54-19.42-11.67-35.69-11.68-58.46,0-19.72-1.19-40.02,5.54-58.92,1.11-3.13,2.93-8.89,3.38-12,1.51-10.42-2.45-24.88,11.02-28.83h.01Z"/>
          <path d="M134.02,55.7c2.95.66,37.73,19.49,39.68,21.03,1,.79,1.26,1.38,1.4,2.65.26,2.37-.2,17.37-1.68,18.82-.59.58-1.21.63-1.98.7-6.46-3.38-38.78-19.58-41.14-22.28-.72-.82-.62-2.05-.54-3.07.17-2.05,2.39-14.81,2.99-16.32.27-.69.71-1.06,1.27-1.53h0Z"/>
          <path class="cls-2" d="M136.61,62.27c11.18,6.01,22.39,11.95,33.64,17.83-.16,3.45-.25,8.84-.7,12.1l-.42-.05-34.3-18.11c.45-3.81,1.18-7.94,1.78-11.76h0Z"/>
          <path d="M223.32,148.59c4.87.51,18.04,9.1,23.42,11.39,4.16,1.77,5.33,7.73,4.8,11.85-.67,5.24,1.74,9.1-3.77,12.14-4.11.23-20.37-9.75-24.64-12.21-5.15-2.98-3.93-15.75-2.89-20.74.25-1.19,2.04-2.06,3.08-2.43Z"/>
          <path class="cls-2" d="M224.35,153.81c2.46,1.06,20.9,10.43,21.7,11.98,1.35,2.6.93,9.98.34,12.88-3.1-1.04-18.05-9.02-21.24-11.4-1.49-1.12-.96-10.82-.81-13.46h.01Z"/>
          <path d="M72.98,72.99c8.87-.94,14.3,12.76,6.24,16.68-8.54.32-14.27-12.51-6.24-16.68Z"/>
          <path class="cls-2" d="M74.34,77.82c3.58.21,4.66,3.8,3.8,6.84-3.57.02-5.12-3.8-3.8-6.84Z"/>
          <path class="cls-1" d="M61.69,146.9c15.58-.92,30.99,7.04,42.66,16.91,23.6,20.18,39.5,50.55,42.49,81.45,2.31,23.81-6.33,53.99-34.18,56.39-14.47,1.43-31.64-7.7-42.38-16.9-23.38-20-39.56-50.2-42.64-80.88-1.55-15.48.79-32.85,11.05-45.14,6.25-7.38,13.47-11.01,23-11.84h0Z"/>
          <path d="M67.72,159.3c37.79.06,67.04,45.78,70.34,80.02,2.15,22.35-5.35,47.13-30.79,49.74-37.52,1.06-68.77-46.94-70.99-81.26-1.44-22.25,5.57-46.64,31.44-48.49h0Z"/>
          <path class="cls-1" d="M77.89,168.15c7.27-.04,18.95,8.41,24.11,13.32,16.79,15.97,29,40.33,29.66,63.6.2,7.21-.14,16.23-5.56,21.48-4.95,4.79-9.49,6.05-16.1,6.16-27.75-1.27-52.45-41.21-54.42-66.59-1.33-17.22,2.16-35.99,22.31-37.97h0Z"/>
          <path d="M87.15,200.02c19.59-.89,34.56,37.78,14.02,41.5-19.98-.29-33.85-37.95-14.02-41.5Z"/>
          <path class="cls-2" d="M95.46,209.01c5.48.78,13.09,10.99,7.72,14.75h-.4c-6.39.17-12.26-9.68-7.33-14.75h.01Z"/>
          <path class="cls-1" d="M58.15,169.27c-.1.91-3.33,4.24-4.04,5.56-19.42,36.36,13.43,98.03,53.39,104.69,2.21.37,6.29-.05,8.55-.28-2.49,1.19-3.71,1.56-6.35,2.14-20.95,3.33-40.72-15.13-51.34-31.35-10.96-16.74-18.32-38.92-14.29-58.94,1.84-9.16,6.2-16.67,14.07-21.83h0Z"/>
          <path class="cls-1" d="M165.65,24.77c.42.14.84.3,1.25.47,1.77.72,5.02,2.53,6.81,3.46l13.54,6.99c8.84,4.55,17.81,9.06,26.64,13.64.85.44,3.69,2.4,4.07,3.03,2.42,4.06,4.68,10.43,6.53,14.79l10.73,24.96c3.01,1.69,6.2,3.19,9.31,4.71-5.84,1.96-12.1,5.18-12.14,12.52.19,2.44-.32,7.76.14,9.88,3.17,14.79,41.43,14.96,41.05-2.05-.04-1.66-.04-3.89-.07-5.58,9.88,4.86,16.27,7.83,22.8,17.17,5.69,8.13,8.66,14.82,9.96,24.67-2.98-1.45-18.6-9.97-20.6-9.77-.71.07-1.49.65-1.89,1.23-.41.59-.51,1.09-.36,1.79.54,2.41,2.15,4.71,3.01,7.04,1.61,4.39,2.56,9.01,3.49,13.58,3.58,2.25,6.62,2.65,9.57,5.19.4.34.23.4.2,1.19-5.69-.09-8.97-6.46-9.08,6.55-.03,3.86-.03,7.76.2,11.64,4.67,3,9.75,5.01,15.33,5.04.26,21.1-.02,42.87,0,64.03.03,6.04.41,12.23-1.42,18.07-.96,3.06-2.43,6-4.67,8.33-3.91,4.05-22.46,13.46-28.43,16.62,3.33-10.07,2.46-20.4,2.46-30.89v-33.54l.05-36.45c0-10.32.78-24.01-1.65-33.63-2.67-10.59-9.59-22.29-18.05-29.25-4.68-3.85-11.94-7.14-17.5-10l-23.04-11.86c-4.33-2.23-9.41-4.69-13.56-7.1-1.2-3.04-2.23-7.52-3.14-10.76-2.28-8.06-4.42-16.32-6.74-24.35-.84-2.69-2.82-6.85-5.18-8.49-4.91-3.41-11.13-6.24-16.44-9l-32.94-17.13,29.8-16.7-.04-.04h0Z"/>
          <path class="cls-1" d="M107.62,118.23c30.8-3.07,60.04,27.68,73.74,52.78,14.51,26.59,25.7,68.15,3.72,93.73-3.58,4.17-13.92,9.34-19.1,12.25-6.4,3.59-12.83,7.15-19.27,10.67l-.57.23-.19-.21c1.01-2.56,2.71-5.32,3.6-7.74,19.34-52.69-26.72-136.09-84.32-140.28,5.49-3.51,11.97-6.9,17.7-10.12,7.95-4.46,15.58-9.95,24.69-11.3h0Z"/>
          <path class="cls-1" d="M114.36,99.95c.9-.13,3.5-.15,4.43-.11,21.42.89,41.67,14.72,56.03,29.8,24.51,25.73,41.97,64.28,41.43,100.12-.43,16.08-4.92,33.06-16.91,44.44-5.67,5.38-12.47,8.78-20.02,10.49-4.85,1.1-9.18,1.01-14.08.85,6.62-4.55,15.25-8.01,21.62-12.71,7.03-6.3,11.3-13.05,14.13-22.13,8.23-26.43.14-57.18-12.42-80.97-12.68-24.02-34.43-48-61.03-56.23-10.3-3.19-23.24-3.54-32.91,1.53-4.91,2.58-9.76,5.75-14.73,8.41,1.49-2.86,3.27-5.57,5.31-8.07,7.64-9.37,17.24-14.18,29.14-15.42h.01Z"/>
          <path class="cls-1" d="M58.18,14.49c.53.94.48,6.15.3,7.31-2.04,13.36,11.35,17.34,22.07,17.51,6.11.1,14.5-1.34,19.26-6.18,3.8-3.86,3.09-8.14,2.98-13.21,8.27,3.69,21.92,11.04,30.09,15.44-9.61,5.17-8.96,4.31-15.55,12.98-3.28,4.54-6.89,9.16-10.24,13.74-12.37-6.74-26.03-13.33-38.58-19.95-7.87-4.15-24.68-13.33-32.43-15.68l22.11-11.95h-.01Z"/>
          <path d="M105.22,33.77c3.26-.34,6.8.18,9.73,1.84,3.79,2.14,5.4,7.24,2.7,10.9-1.95,2.64-5.28,3.45-8.41,3.92-7.06.39-17.71-2.65-12.66-12.79,1.2-2.42,5.97-3.46,8.64-3.86h0Z"/>
          <path class="cls-2" d="M105.74,38.76c2.48-.1,5.39.14,7.22,2.01.43,2.06-2.04,2.28-3.61,2.67-2.03.14-7.87.11-7.64-2.86,1.05-1.3,2.41-1.45,4.03-1.81h0Z"/>
          <path class="cls-2" d="M79.65,6.93c18.64.3,23.36,12.37,2.73,14.37-19.7.41-24.15-12.98-2.73-14.37Z"/>
          <path class="cls-1" d="M294.29,155.41c3.23,1.19,13.25,6.24,16.25,8.42,2.37,2.12,2.35,6.24,2.43,8.98.21,7.38-.08,17.06-9.85,17.16-2.54-.72-3.16-.96-5.55-2.08.13-1.91.06-4.25.05-6.2l1.13.36c2.93.92,5.42.67,6.87-2.45,1.23-2.85,1.09-7.69.15-10.58-.99-3.03-6.9-5.09-9.65-6.33-.52-2.63-1.09-4.69-1.83-7.28Z"/>
          <path class="cls-2" d="M252.41,102.62c17.92.39,19.2,11.83,1.36,12.66-17.65-.09-19.51-11.61-1.36-12.66Z"/>
          <path class="cls-2" d="M65.22,24.71c10.21,5.06,20.8,5.08,30.97-.09.03,1.63.27,3.85-.58,5.12-7.64,5.74-23.36,6.37-30.32-.65l-.07-4.38Z"/>
          <path class="cls-2" d="M238.87,119.17c1.79.44,3.72,1.37,5.66,1.89,8.83,2.39,13.89,1.32,22.06-1.52l.27.29-.48,1.12c-.79.7-1.68,1.28-2.63,1.74-6.2,2.94-21.57,3.64-24.89-3.52h.01Z"/>
        </g>
      </g>
    </g>
  </g>
</svg>