<?xml version="1.0" encoding="UTF-8"?>
<svg id="Layer_2" xmlns="http://www.w3.org/2000/svg" version="1.1" viewBox="0 0 319.7 320">
  <!-- Generator: Adobe Illustrator 30.0.0, SVG Export Plug-In . SVG Version: 2.1.1 Build 48)  -->
  <defs>
    <style>
      .st0 {
        fill: #efadff;
      }

      .st1 {
        fill: #fff;
      }
    </style>
  </defs>
  <g id="Layer_2-2">
    <g id="Layer_1-2">
      <g>
        <path d="M313.3,156.9c-.8-16.6-7.3-29.3-19.3-40.9-6.8-6.6-14.9-8.3-22.1-13-7-4.6-5.2-4.6-14-7.1-3.5-1-14-6.8-17.4-9-3.6-10.2-9.1-20.3-12.9-30.5-2-5.4-4.1-10.1-9.4-12.8-15.3-7.9-30.7-15.7-46.1-23.5-2.7-1.3-6.5-2.8-9.3-1.5-7.9,3.6-15.2,8.6-23,12.5-2.4-1.4-5.1-2.8-7.7-4-9.8-4.9-19.6-10.3-29.5-14.9C99,2,88.2-.7,78.2.1c-8.8.9-15.8,3.9-23.4,8.3-8.9,5.3-18.3,10-27.2,15.4-.4.2-6.1-2.4-6.9-2.8-6-2.3-12.8-.5-16.8,4.5-7.8,9.9-3.2,29.6,6.9,36.3-2.9,9.2-5.6,16-7.2,25.7-1.8,10.7-1.7,19.4-1.7,30.2,0,8.6,0,17.2,0,25.8.1,16.5-1.2,26.6,6.8,41.9,3,5.9,7.1,11.2,11.9,15.7,1.9,44.7,42.3,108.8,93.1,107.5,13.5-.3,29.4-12.3,41.8-18.1,9.2,2.5,21.2,3.4,30.2-.5,3.7,2.1,7.5,4.1,11.3,6,10.7,5.3,21.2,11,31.8,16.4,8.7,4.6,17.4,9.7,27.5,6.7,5.1-1.5,42.2-21.4,46.3-24.6,2.9-2.2,5.1-5.1,6.8-8.3,2.1-4,3.2-8.3,3.6-12.8.5-4.6.2-9.3.2-13.9v-16.4c0-15.9.3-33.5,0-49.3,4.4-4,6.3-8.2,6.5-14.2.2-9.3,1-16-6.3-22.7ZM18.8,30.2c-5.5,4.8-7.1,11.7-7.6,18.6l-.2,3.7c-4.7-7.6-7.6-20.6,2.4-25.3,3.2-.3,4.5.2,7.2,1.5-.6.5-1.2,1-1.9,1.5Z"/>
        <path class="st0" d="M28.6,33.1c8.6-.7,20,6.7,27.8,10.7l37,19.2c3.4,1.8,12.3,6.6,15.7,7.7,3.3-3.1,6.3-8,9.2-11.6,3.3-4.1,6.3-9.2,9.8-13.1,4.2,1,8.6,3.7,12.4,5.7l15.9,8.4,13.4,7c2.8,1.4,11.7,5.6,12.7,8.4,5,12.8,6.9,27.8,11.9,40.6,2.2,1.7,9.7,5.3,12.6,6.8l24.1,12.4c12.1,6.1,19.1,8.1,26.9,19.7,2.6,3.9,4.8,8.1,6.3,12.5,1.2,3.6,2,7.2,2.2,11,.5,6.6.2,15.5.2,22.2v39.8c0,0,0,34.2,0,34.2,0,12,2.5,33-12.3,37.7-3.1,1-6.5,1-9.6.1-4.2-1.2-14.7-6.9-19.2-9.2-10.5-5.4-21.3-10.8-31.8-16.3,5.3-3,8.6-5.7,12.9-10,25.7-28.4,17.3-76.9,2.4-108.4-14.3-30.1-38-59.6-70.2-71.5-31.2-11.5-58.1,1.7-69.2,32.7-9.7,5.2-24.5,13.7-32.8,20.6-11.4,9.4-15.9,26.8-16.6,41.2-14.5-19.4-11.7-35.7-11.7-58.5,0-19.7-1.2-40,5.5-58.9,1.1-3.1,2.9-8.9,3.4-12,1.5-10.4-2.4-24.9,11-28.8h0Z"/>
        <path d="M134,55.7c2.9.7,37.7,19.5,39.7,21,1,.8,1.3,1.4,1.4,2.7.3,2.4-.2,17.4-1.7,18.8-.6.6-1.2.6-2,.7-6.5-3.4-38.8-19.6-41.1-22.3-.7-.8-.6-2.1-.5-3.1.2-2.1,2.4-14.8,3-16.3.3-.7.7-1.1,1.3-1.5h0Z"/>
        <path class="st1" d="M136.6,62.3c11.2,6,22.4,12,33.6,17.8-.2,3.4-.2,8.8-.7,12.1h-.4c0,0-34.3-18.2-34.3-18.2.4-3.8,1.2-7.9,1.8-11.8h0Z"/>
        <path d="M223.3,148.6c4.9.5,18,9.1,23.4,11.4,4.2,1.8,5.3,7.7,4.8,11.9-.7,5.2,1.7,9.1-3.8,12.1-4.1.2-20.4-9.8-24.6-12.2-5.1-3-3.9-15.8-2.9-20.7.2-1.2,2-2.1,3.1-2.4Z"/>
        <path class="st1" d="M224.4,153.8c2.5,1.1,20.9,10.4,21.7,12,1.4,2.6.9,10,.3,12.9-3.1-1-18.1-9-21.2-11.4-1.5-1.1-1-10.8-.8-13.5h0Z"/>
        <path d="M73,73c8.9-.9,14.3,12.8,6.2,16.7-8.5.3-14.3-12.5-6.2-16.7Z"/>
        <path class="st1" d="M74.3,77.8c3.6.2,4.7,3.8,3.8,6.8-3.6,0-5.1-3.8-3.8-6.8Z"/>
        <path class="st0" d="M61.7,146.9c15.6-.9,31,7,42.7,16.9,23.6,20.2,39.5,50.6,42.5,81.4,2.3,23.8-6.3,54-34.2,56.4-14.5,1.4-31.6-7.7-42.4-16.9-23.4-20-39.6-50.2-42.6-80.9-1.5-15.5.8-32.9,11-45.1,6.2-7.4,13.5-11,23-11.8h0Z"/>
        <path d="M67.7,159.3c37.8,0,67,45.8,70.3,80,2.1,22.4-5.4,47.1-30.8,49.7-37.5,1.1-68.8-46.9-71-81.3-1.4-22.2,5.6-46.6,31.4-48.5h0Z"/>
        <path class="st0" d="M77.9,168.1c7.3,0,18.9,8.4,24.1,13.3,16.8,16,29,40.3,29.7,63.6.2,7.2-.1,16.2-5.6,21.5-4.9,4.8-9.5,6-16.1,6.2-27.8-1.3-52.5-41.2-54.4-66.6-1.3-17.2,2.2-36,22.3-38h0Z"/>
        <path d="M87.2,200c19.6-.9,34.6,37.8,14,41.5-20-.3-33.8-37.9-14-41.5Z"/>
        <path class="st1" d="M95.5,209c5.5.8,13.1,11,7.7,14.8h-.4c-6.4.2-12.3-9.7-7.3-14.8h0Z"/>
        <path class="st0" d="M58.2,169.3c0,.9-3.3,4.2-4,5.6-19.4,36.4,13.4,98,53.4,104.7,2.2.4,6.3,0,8.6-.3-2.5,1.2-3.7,1.6-6.3,2.1-21,3.3-40.7-15.1-51.3-31.4-11-16.7-18.3-38.9-14.3-58.9,1.8-9.2,6.2-16.7,14.1-21.8h0Z"/>
        <path class="st0" d="M165.6,24.8c.4.1.8.3,1.2.5,1.8.7,5,2.5,6.8,3.5l13.5,7c8.8,4.5,17.8,9.1,26.6,13.6.9.4,3.7,2.4,4.1,3,2.4,4.1,4.7,10.4,6.5,14.8l10.7,25c3,1.7,6.2,3.2,9.3,4.7-5.8,2-12.1,5.2-12.1,12.5.2,2.4-.3,7.8.1,9.9,3.2,14.8,41.4,15,41.1-2.1,0-1.7,0-3.9,0-5.6,9.9,4.9,16.3,7.8,22.8,17.2,5.7,8.1,8.7,14.8,10,24.7-3-1.4-18.6-10-20.6-9.8-.7,0-1.5.6-1.9,1.2-.4.6-.5,1.1-.4,1.8.5,2.4,2.1,4.7,3,7,1.6,4.4,2.6,9,3.5,13.6,3.6,2.2,6.6,2.6,9.6,5.2.4.3.2.4.2,1.2-5.7,0-9-6.5-9.1,6.6,0,3.9,0,7.8.2,11.6,4.7,3,9.8,5,15.3,5,.3,21.1,0,42.9,0,64,0,6,.4,12.2-1.4,18.1-1,3.1-2.4,6-4.7,8.3-3.9,4-22.5,13.5-28.4,16.6,3.3-10.1,2.5-20.4,2.5-30.9v-70c0-10.3.8-24-1.6-33.6-2.7-10.6-9.6-22.3-18.1-29.2-4.7-3.9-11.9-7.1-17.5-10l-23-11.9c-4.3-2.2-9.4-4.7-13.6-7.1-1.2-3-2.2-7.5-3.1-10.8-2.3-8.1-4.4-16.3-6.7-24.3-.8-2.7-2.8-6.8-5.2-8.5-4.9-3.4-11.1-6.2-16.4-9l-32.9-17.1,29.8-16.7h0s0,0,0,0Z"/>
        <path class="st0" d="M107.6,118.2c30.8-3.1,60,27.7,73.7,52.8,14.5,26.6,25.7,68.1,3.7,93.7-3.6,4.2-13.9,9.3-19.1,12.2-6.4,3.6-12.8,7.1-19.3,10.7l-.6.2-.2-.2c1-2.6,2.7-5.3,3.6-7.7,19.3-52.7-26.7-136.1-84.3-140.3,5.5-3.5,12-6.9,17.7-10.1,7.9-4.5,15.6-9.9,24.7-11.3h0Z"/>
        <path class="st0" d="M114.4,99.9c.9-.1,3.5-.2,4.4-.1,21.4.9,41.7,14.7,56,29.8,24.5,25.7,42,64.3,41.4,100.1-.4,16.1-4.9,33.1-16.9,44.4-5.7,5.4-12.5,8.8-20,10.5-4.9,1.1-9.2,1-14.1.9,6.6-4.5,15.2-8,21.6-12.7,7-6.3,11.3-13,14.1-22.1,8.2-26.4.1-57.2-12.4-81-12.7-24-34.4-48-61-56.2-10.3-3.2-23.2-3.5-32.9,1.5-4.9,2.6-9.8,5.8-14.7,8.4,1.5-2.9,3.3-5.6,5.3-8.1,7.6-9.4,17.2-14.2,29.1-15.4h0Z"/>
        <path class="st0" d="M58.2,14.5c.5.9.5,6.1.3,7.3-2,13.4,11.4,17.3,22.1,17.5,6.1,0,14.5-1.3,19.3-6.2,3.8-3.9,3.1-8.1,3-13.2,8.3,3.7,21.9,11,30.1,15.4-9.6,5.2-9,4.3-15.6,13-3.3,4.5-6.9,9.2-10.2,13.7-12.4-6.7-26-13.3-38.6-20-7.9-4.2-24.7-13.3-32.4-15.7l22.1-11.9h0Z"/>
        <path d="M105.2,33.8c3.3-.3,6.8.2,9.7,1.8,3.8,2.1,5.4,7.2,2.7,10.9-1.9,2.6-5.3,3.5-8.4,3.9-7.1.4-17.7-2.7-12.7-12.8,1.2-2.4,6-3.5,8.6-3.9h0Z"/>
        <path class="st1" d="M105.7,38.8c2.5,0,5.4.1,7.2,2,.4,2.1-2,2.3-3.6,2.7-2,.1-7.9.1-7.6-2.9,1.1-1.3,2.4-1.5,4-1.8h0Z"/>
        <path class="st1" d="M79.7,6.9c18.6.3,23.4,12.4,2.7,14.4-19.7.4-24.2-13-2.7-14.4Z"/>
        <path class="st0" d="M294.3,155.4c3.2,1.2,13.2,6.2,16.2,8.4,2.4,2.1,2.4,6.2,2.4,9,.2,7.4,0,17.1-9.9,17.2-2.5-.7-3.2-1-5.5-2.1.1-1.9,0-4.2,0-6.2l1.1.4c2.9.9,5.4.7,6.9-2.4,1.2-2.9,1.1-7.7.1-10.6-1-3-6.9-5.1-9.6-6.3-.5-2.6-1.1-4.7-1.8-7.3Z"/>
        <path class="st1" d="M252.4,102.6c17.9.4,19.2,11.8,1.4,12.7-17.6,0-19.5-11.6-1.4-12.7Z"/>
        <path class="st1" d="M65.2,24.7c10.2,5.1,20.8,5.1,31,0,0,1.6.3,3.9-.6,5.1-7.6,5.7-23.4,6.4-30.3-.6v-4.4Z"/>
        <path class="st1" d="M238.9,119.2c1.8.4,3.7,1.4,5.7,1.9,8.8,2.4,13.9,1.3,22.1-1.5l.3.3-.5,1.1c-.8.7-1.7,1.3-2.6,1.7-6.2,2.9-21.6,3.6-24.9-3.5h0Z"/>
      </g>
    </g>
  </g>
</svg>