<?xml version="1.0" encoding="UTF-8"?>
<svg id="Layer_2" data-name="Layer 2" xmlns="http://www.w3.org/2000/svg" viewBox="0 0 367.34 344.31">
  <defs>
    <style>
      .cls-1 {
        fill: #efadff;
      }

      .cls-2 {
        fill: #fff;
      }
    </style>
  </defs>
  <g id="Layer_2-2" data-name="Layer 2">
    <g id="Layer_1-2" data-name="Layer 1-2">
      <g>
        <path d="M188.98.18c9.58-1.14,15.5,3.47,23.5,7.89l18.19,10,57.98,32.06,48.88,26.98c5.96,3.31,12.18,6.39,17.98,9.94,12.33,7.54,11.85,19.2,11.82,31.57v22.16l-.03,86.07c0,2.19.03,4.38-.15,6.56-1.02,11.99-13.01,16.3-22.2,21.54l-24.76,14.2-99.69,57.38c-5.91,3.41-11.81,6.85-17.68,10.32-10.6,6.16-11.91,7.53-24.25,7.46-4.59-.53-7.99-1.4-12.11-3.66-9.99-5.51-20-11.05-30-16.54l-74.25-40.97c-11.49-6.36-23.01-12.67-34.57-18.91-8.67-4.7-23.98-10.71-26.4-21.4-1.87-8.27-1.07-19.81-1.06-28.55l.02-37.65-.02-42.33c0-5.13-.6-25.88,1.18-27.07,4.26-2.86,30.14-17.61,35.43-20.65l92.54-53.38,34.32-19.99c6.43-3.74,18.43-11.6,25.32-13.02h0Z"/>
        <path class="cls-1" d="M194.47,9.38c4.11,1.43,11.43,5.87,15.65,8.17l34.5,18.99,66.65,36.81c12.87,7.08,25.77,14.11,38.59,21.27,9.66,5.39,8.11,16,8.11,25.43v23.51l-.04,79.82c-11.95-7.02-25.45-14.11-37.69-20.83-.29-.21-1.02-.59-.93-.9,2.3-7.4,1.73-13.1-1.24-20.42-1.73-4.25-5.74-10.49-6.84-15.29-2.74-11.95,1.05-25.03-11.13-33.08-4.2-2.78-9.33-3.75-14.25-2.7-5.45,1.21-10.18,4.56-13.13,9.3-5.35,8.47-3.61,15.75-1.55,24.61-2.27,3.42-6.33,3.94-10.26,5.93-12.08-6.19-23.89-13.26-35.93-19.57-3.89-2.04-8.21-4.36-11.87-6.73,5.09.24,10.3.44,13.73-4.28,1.2-1.65,1.68-4.38,1.24-6.41-1.71-7.85-10.93-5.8-15.99-9.79-8.24-6.01-4.54-9.71-6.35-18.2-1.68-7.9-4.8-12.22-11.23-16.55-.28-26.18-.03-52.85-.02-79.06l-.02-.03Z"/>
        <path class="cls-1" d="M189.87,9.51l.21.06c.44.51.43.55.42,1.39-.03,8.1-.03,16.28-.03,24.38v51.51c-13.47-3.05-22.75,6.26-24.88,19.03-.63,3.74-.42,8.44-1.8,11.95-1.79,4.57-6.92,7.65-9.61,11.71-4.15,5.79-6.14,15.6-1.27,21.49.83,1,2.02,1.78,3.1,2.51l-13.37,7.58c.22-8.99-4-17.82-12.41-21.72-4.88-2.22-10.43-2.42-15.45-.54-14.5,5.47-11.34,20.65-14.14,32.25-1.02,4.23-7.01,13.39-9.23,18.33-5.58,3.62-14.26,8.27-20.26,11.69.2-7.22.09-15.05.11-22.31l-.03-20.28c-.03-24.35-.9-21.83-21.63-32.96l-31.84-17.04c11.08-7.02,24.98-14.5,36.53-21.17l73.37-42.28,40.51-23.46c5.49-3.18,16.34-9.9,21.69-12.13h0Z"/>
        <path class="cls-1" d="M9.65,114.48c16.31,9.85,34.05,17.86,50.26,27.81,2.59,1.59,1.8,13.79,1.79,17.09v24.5l-.03,81.51c6.42,4.15,16.26,9.08,23.2,12.86l36.65,20.21,32.37,17.93c5.2,2.9,12.86,7.48,18.03,9.9,2.51,1.2,5.23,1.92,8.01,2.11,9.1.7,18.16-6.18,25.85-10.62l25.64-14.8,73.28-42.2,33.49-19.28c4.83-2.75,16.12-8.79,19.63-11.83-.21,2.21-.27,3.61-.94,5.73-1.12,1.94-1.89,2.84-3.84,3.97-5.91,3.42-11.84,6.82-17.76,10.23l-51.73,29.8-62.09,35.82-18.11,10.36c-7.74,4.5-16.83,11.56-26.29,8.99-7.15-1.94-14.73-7.11-21.35-10.7l-45.1-24.88-65.09-35.78c-5.54-3.02-28.96-14.97-32.26-18.34-2.07-2.11-2.9-4.2-3.29-7.09-.65-4.83-.32-9.95-.32-14.83v-25.87l-.02-82.63.02.03Z"/>
        <path class="cls-2" d="M184.49,90.62c2.29-.13,4.57.27,6.67,1.18,12.2,5.25,10.09,20.16,11.48,30.47,1.66,10.14,7.69,19.95,5.12,30.53-1.33,5.5-4.2,9.97-4.74,15.8-.31,3.31-1.28,9.64-5.1,10.5-5.43,1.23-6.92-3.28-8.03-7.45,1.71-.49,10.31-2.38,9.26-5.8-.23-.74-.69-.86-1.33-1.13-1.91.15-5.66,1.66-7.54,2.19-6.58,1.48-8.47,4.05-10.44,10.37-.47,1.52-1.32,3.11-2.46,4.36-1.69.95-4.5,1.85-6.33.73-4.72-2.89-3.35-10.5-4.87-15.17-1.49-4.57-3.42-8.63-4.64-13.12,9.14-2.57,4.58-9.23,10.69-14.16.5-.14.59-1.66.4-1.94-4.79-6.45-7.51,7.02-8.88,8.94-6.36,8.89-11.47-3.62-8.34-10.09,1.77-3.65,2.26-5.37,5.39-8.44,2.61-2.56,5.63-5.45,7.05-8.8,2.74-7.64.78-16.08,6.15-22.98,2.88-3.69,5.87-5.34,10.49-5.98h0Z"/>
        <path d="M195.02,105.55c3.79.57,3.85,5.34.98,7.56-3.83-.74-3.81-5.47-.98-7.56Z"/>
        <path d="M183.84,106.78c3.74,1.14,3.65,5.36.77,7.58-.81-.27-1.55-.42-2.07-1.16-.67-.96-.94-2.15-.74-3.31.27-1.63.75-2.22,2.04-3.12h0Z"/>
        <path class="cls-2" d="M235.17,183.59c3.12-.28,6.93.29,9.54,2.11,10.47,7,7.2,20.48,10.03,30.45,3.6,12.71,10.73,22.9,4.48,36.41-3.85,9.15-11.91,8.92-19.03,14.12-4.28,3.12-4.23,18.31-13.76,12.86-3.35-1.91-4.27-11.05-4.84-14.73-1.11-5.71-2.75-9.16-4.71-14.54,2.2-.84,4.27-2,6.14-3.43,2.78-2.11,10.07-9.07,6.94-12.76-2.21-.13-3.81,2.54-4.84,4.28-2.64,4.46-10.42,10.79-15.83,7.87-1.09-.6-1.88-1.63-2.16-2.84-1.18-4.93,6.34-8.16,8.41-12.58.66-1.05,2.93-5.31,2.59-6.42-1.42-3.9,2.37-7.28,2.71-10.89,1.08-11.42-1.19-27.28,14.34-29.89v-.02Z"/>
        <path class="cls-2" d="M287.23,134.35c1.06-.1,2.46-.16,3.53-.11,3.75.18,7.25,1.9,9.69,4.75,7.02,8.11,3.58,18.74,6.35,28.13,2.79,9.47,10,16.88,9.38,27.35-.62,10.48-7.72,12.39-11.88,20.51-1.84,3.59-1.82,9.67-5.04,12.43-1.23,1.05-2.79,1.34-4.41,1.18-6.98-.71-5.38-11.12-8.77-15.18-3.95-4.74-6.72-5.59-10.67-10.98-1.1-1.77-1.5-2.61-2.34-4.52,7.27-.05,12.99-1.67,18.86-6.09,1.91-1.44,4.06-3.17,2.1-5.59-1.68-.77-2.48-.16-3.79,1.01-3.47,3.05-4.38,3.85-9,5.3-5.29,1.66-17.69,2.14-14.16-7.03,1.71-1.54,5.15-2.46,7.17-3,2.73-.66,12.96-6.2,7.18-9.11-.52-.26-6.73,4.67-8.61,5.59,2.77-8.91,4.24-12.04,1.45-21.21-1.45-5.4-.63-11.32,2.29-16.09,2.59-4.24,5.97-6.2,10.64-7.33h.03Z"/>
        <path d="M278.19,147.67c4.22.8,4.12,4.74,1.64,7.41-4.52-.13-4.14-5.06-1.64-7.41Z"/>
        <path class="cls-2" d="M119.75,142.08c4.97-.55,9.59,1.02,13.13,4.59,4.65,4.69,6.3,12.1,4.66,18.42-.95,3.69-2.72,7.28-2.62,11.16.07,3.67.95,7.15,1.68,10.73.54,2.69.66,4.72.69,7.47-2.53-2.24-4.19-4.04-5.36-7.3-.75-2.1-1.62-5.35-4.45-3.02-3.11,6.37,9.53,14.14,9.31,17.42-.75,11.44-18.71.26-19.77-6.54-.63-4.02-6.29-4.02-4.82-.14,2.29,6.04,6.12,10.45,11.77,13.55,3.75,1.79,5.46,2.06,9.54,2.02-3.11,4.8-6.49,6.41-9.7,10.58-2.49,3.87-3.15,8.27-5.18,12.43-1.6,3.26-4.99,5.35-8.47,3.36-3.21-1.84-2.83-7.51-3.74-10.8-2.25-8.04-11.17-11.99-12.63-20.6-3.2-13.28,8.19-22.52,11.44-33.82,3.2-11.12-1.7-25.91,14.53-29.5h0Z"/>
        <path d="M131.44,155.97c4.27.1,4.2,5.09,1.67,7.49-4.12-.15-3.75-5.07-1.67-7.49Z"/>
        <path class="cls-2" d="M189.48,200.09c3.07-.03,22.8,11.63,26.62,13.95-.71,1.89-1.44,3.78-2.17,5.66-6.23,3.34-12.34,6.92-18.48,10.41-2.28,1.3-4.18,2.51-6.82,1.76-1.29-.63-5.84-3.09-6.83-3.76-2.43-1.65-20.38-10.62-20.65-12,1.7-1.87,24.94-14.39,28.34-16.01h0Z"/>
        <path class="cls-1" d="M158.39,265.04c1.96.57,18.56,10.15,21.13,11.65l-22.45,12.74c-1.31.06-18.64-9.99-21.11-11.42,7.5-4.28,14.98-8.6,22.44-12.96h-.01Z"/>
        <path class="cls-1" d="M134.04,251.28c2.47.64,17.67,9.77,20.86,11.64l-22.64,12.95c-.53-.07-18.78-10.49-20.84-11.63l22.62-12.95h0Z"/>
        <path class="cls-1" d="M183.04,278.78c1.32.5,5.36,2.87,6.78,3.68l13.7,7.8-22.67,13.02c-4.53-3.07-15.28-8.63-20.49-11.46,7.39-4.01,15.42-8.73,22.67-13.04h.01Z"/>
        <path class="cls-1" d="M106.4,239.37c3.41,2.53,5.96,2.85,10.01,1.95,4.11,2.08,10.18,5.49,14.07,7.88-6.64,3.59-13.41,7.57-19.99,11.33l-2.79,1.55c-6.86-3.88-13.92-7.62-20.71-11.61,6.5-3.4,12.88-7.59,19.41-11.1h0Z"/>
        <path class="cls-1" d="M85.32,223.83c1.49.08,15.28,8.11,17.85,9.56l1.06,2.92c-5.46,3.02-11.24,6.54-16.66,9.7l-4.24,2.38c-3.99-2.21-8.1-4.42-12.01-6.75.05-3.24.03-6.48-.07-9.71,4.72-2.65,9.41-5.34,14.07-8.09h0Z"/>
        <path class="cls-1" d="M163.54,179.74c.36.28.48.57.69,1,2.79,5.68,6.92,7.43,13.08,5.67,2.52,1.25,5.44,2.98,7.94,4.37l-21.54,12.22c-.47.26-.45.22-.98.37-2.29-.99-5.58-2.92-7.85-4.15-4.34-2.32-8.65-4.69-12.94-7.11,7.24-4.14,14.41-8.11,21.59-12.37h.01Z"/>
        <path class="cls-1" d="M179.64,252.84c5.01,2.87,10.36,6.99,15.9,2.92l10.32,5.66-17.53,10.14-5.03,2.97c-6.96-4-13.98-7.91-21.05-11.72l17.4-9.97h0Z"/>
        <path class="cls-1" d="M209.45,263.6c1.11.1,6.85,3.44,8.18,4.18.58,4.47,1.17,8.4,3.66,12.19-4.62,2.76-9.29,5.45-13.99,8.07l-4.95-2.7c-5.14-2.93-10.31-5.81-15.5-8.65l22.6-13.08h0Z"/>
        <path class="cls-2" d="M160.91,221.24c1.9.83,4.36,2.41,6.3,3.4,6.79,3.46,14.35,8.46,21.13,11.54-.24,4.94,0,11.37-.04,16.5l-.31.2c-2.18-.85-25.78-13.99-27-15.14-.16-5.34-.07-11.14-.09-16.51h0Z"/>
        <path class="cls-1" d="M207.34,292.25c5.93,3.37,11.88,6.71,17.86,10.02l-22.8,13.08-17.81-9.97c7.48-4.08,15.36-8.84,22.75-13.13h0Z"/>
        <path class="cls-1" d="M286.46,247.02c2.15.51,15.14,8.13,17.87,9.64-7.11,4.35-15.46,8.89-22.75,13.1-1.68-.54-15.38-8.47-17.65-9.79,7.22-3.81,15.38-8.8,22.53-12.94h0Z"/>
        <path class="cls-1" d="M312.56,231.83c1.62.46,15.52,8.55,17.75,9.83-7.47,4.2-14.9,8.46-22.29,12.79-5.95-3.13-11.99-6.5-17.91-9.71,7.5-4.27,14.98-8.57,22.44-12.91h.01Z"/>
        <path class="cls-1" d="M136.62,222.66c.96,0,18.02,9.95,20.22,11.21-4.69,3.2-13.43,7.92-18.56,10.86l-4.12,2.31c-4.44-2.7-9.63-5.49-14.19-8.01,1.89-2.35,2.33-3.37,3.41-6.08,11.69-.19,7.46-7.16,13.24-10.29h0Z"/>
        <path class="cls-1" d="M338.38,216.94c.58.16,4.29,2.11,4.83,2.53,1.97,1.51,11.56,5.65,11.92,7.35-2.4,2.57-16.72,10.11-20.96,12.72-5.6-3.31-12.05-6.71-17.79-9.83,7.36-4.27,14.71-8.38,22-12.77Z"/>
        <path class="cls-1" d="M107.4,266.45c1.16.09,18.35,10.09,21.26,11.6-5.91,3.33-11.77,6.74-17.58,10.22-6.16-2.93-14.86-8.26-21.3-11.61,4.95-3.21,12.35-7.13,17.63-10.21h0Z"/>
        <path class="cls-1" d="M240.17,163.44c1.28.09,15.97,8.42,18.15,9.62-.79,1.88-.85,2.14-1.01,4.21-2.31,1.31-7.31,4.38-9.52,5.28-3.47-2.09-5.16-2.7-9.17-3.25-3.46-.29-6.51.17-9.56,1.88-3.43-1.81-6.85-3.64-10.25-5.5,7.17-4.01,14.29-8.09,21.37-12.24h0Z"/>
        <path class="cls-1" d="M132.08,280.18c1.02.31,5.77,3.11,7,3.81,4.59,2.67,9.22,5.27,13.88,7.81-5.54,3.43-11.77,6.89-17.44,10.13-6.27-3.86-14.31-8-20.87-11.55,5.04-3.27,12.03-6.94,17.44-10.22v.02Z"/>
        <path class="cls-1" d="M82.85,252.7c1.42.12,18.45,10.04,21.17,11.59-5.09,2.8-10.13,5.68-15.12,8.64l-2.8,1.67c-5.54-3.16-11.36-6.26-16.96-9.37,2.73-1.95,2.34-2.79,2.17-5.89,3.88-2.15,7.73-4.37,11.54-6.65h0Z"/>
        <path class="cls-1" d="M156.94,238.21c.35.38,1.08,2.43,1.66,2.85,4.98,3.64,11.61,6.55,17.03,9.77l-11.33,6.64c-1.65.96-3.52,2.11-5.24,2.96-.69.34-.7.15-1.36-.16-6.43-3.77-13.28-7.47-19.82-11.1l19.06-10.96h0Z"/>
        <path class="cls-1" d="M156.53,293.95c6.8,3.55,13.92,7.66,20.66,11.41-5.05,3.17-11.94,6.88-17.24,9.95-1.04-.38-5.17-2.78-6.39-3.45-4.7-2.67-9.42-5.28-14.18-7.83,1.41-1.03,4.58-2.74,6.21-3.68,3.67-2.09,7.32-4.23,10.94-6.41h0Z"/>
        <path class="cls-1" d="M238.5,279.96c3.89,1.91,9.07,5.01,12.93,7.23-7.28,3.85-15.41,8.76-22.59,12.95-1.34-.8-2.8-1.59-4.16-2.36-4.48-2.47-9.25-5-13.6-7.64l12.69-7.32c5.52,3.74,11.01,2.52,14.74-2.84v-.02Z"/>
        <path class="cls-1" d="M215.11,177.83c3.38,1.8,6.68,3.53,9.96,5.52-5.6,5.18-7.03,9.51-8.11,16.88l-3.44,2.08-7.21-3.99c-4.61-2.44-9.24-5.03-13.82-7.53,7.57-4.25,15.11-8.57,22.61-12.95h0Z"/>
        <path class="cls-1" d="M216.07,150.02c2.57.68,17.48,9.37,20.61,11.17-3.59,2.32-9.12,5.23-12.97,7.41-2.83,1.7-5.69,3.34-8.58,4.94-2.62-1.43-5.22-2.9-7.81-4.4,1.31-6.19,4.15-11.7,4.95-16.8l3.79-2.33h.01Z"/>
        <path class="cls-1" d="M180.56,307.67c1.31,0,15.98,8.56,18.19,9.88-6.53,3.24-8.99,6.53-16.67,7.26-6.91.16-12.49-3.94-18.44-7.33,4.31-2.91,12.15-7.09,16.92-9.81h0Z"/>
        <path class="cls-1" d="M279.75,223.57c1.54.86,3.67,1.01,5.4.91,1.06,2.82,2.2,5.04,4.77,6.79,2.27,1.54,5.07,2.11,7.77,1.57,3.6-.73,5.33-2.73,7.16-5.58,1.38.79,2.74,1.61,4.08,2.45-3.55,2.33-9.09,5.25-12.91,7.42-3.05,1.88-6.35,3.74-9.47,5.55-6.81-3.73-13.59-7.52-20.34-11.37,4.65-2.47,9.01-5.07,13.54-7.74h0Z"/>
        <path class="cls-1" d="M317.35,205.17c5.65,3.29,11.62,6.42,17.34,9.66-4.25,2.75-10.46,6.1-15.01,8.72-2.33,1.34-4.64,2.7-6.94,4.08-2.23-1.22-4.44-2.46-6.64-3.74,2.88-12.35,5.16-9.42,11-18.34l.24-.38h.01Z"/>
        <path class="cls-1" d="M89.07,195.24c.44.59-.26,5.07-.23,6.25.12,5.15,1.44,9.07,4.33,13.36-2.47,1.59-5.07,3.13-7.58,4.66-2-1.04-4.05-2.22-6.02-3.32l-8.37-4.73c.08-1.9.04-4,.04-5.92,5.17-3.28,12.38-7.15,17.83-10.3Z"/>
        <path class="cls-1" d="M260.6,262.33c5.68,3.32,11.54,6.38,17.18,9.74-6.92,3.87-15.49,9.09-22.63,12.78-.35.18-1-.31-1.47-.56-2.05-1.3-13.6-7.02-13.65-8.56.46-.92.57-1.31,1.4-1.95,2,.86,2.29,3.15,5.41,3.84,11.19,2.49,12.3-7.11,13.78-15.3h-.02Z"/>
        <path class="cls-1" d="M264.77,204.37c1.41.31,7.68,3.79,9.23,4.64.28,5.02-.03,7.99,2.75,12.21-2.68,1.64-5.84,3.35-8.59,4.91l-4.46,2.55c-1.49-5.37-4.02-10.49-5.04-16.01-.27-1.49-.53-2.97-.78-4.47l6.89-3.83h0Z"/>
        <path class="cls-2" d="M212.11,225.26l.39.13c1.41,3.92-7.82,9.8-9.13,13.08-1.29,3.22-.77,5.02.35,8.07-3.28,2.06-7.16,4.21-10.54,6.2-.32.2-.12.14-.62.05-.5-1.78-.23-14-.26-16.6,5.14-2.26,14.67-8.02,19.81-10.92h0Z"/>
        <path class="cls-1" d="M141.57,196.17c4.54,2.06,12.87,6.94,17.41,9.52-4.12,2.26-8.2,4.58-12.26,6.96l-10.04,5.8c-2.14-1.33-2.2-2.13-.69-4.28,4.96-7.06,5.01-9.78,5.58-18h0Z"/>
        <path class="cls-1" d="M265.35,235.15c1.41.6,4.58,2.48,6.02,3.28l11.53,6.46c-3.37,2.04-7.06,4.06-10.5,6.04-3.54,2.1-7.1,4.14-10.7,6.12,4.24-7.14,5.18-13.79,3.65-21.9h0Z"/>
        <path class="cls-1" d="M162.58,207.79c.74,0,1.49.4,1.91,1-1.14,1.87-7.4,3.34-7.53,7.75-.13,4.38.06,8.76.04,13.16-2.48-1.13-6.55-3.61-9.04-5.04l-7.71-4.26c7.36-3.96,15.01-8.47,22.33-12.61h0Z"/>
        <path class="cls-1" d="M257.95,181.18s2.56,2.72,4.61,3.94c-1.77,6.29,1.27,9.13,6.16,12.27-2.35,1.76-2.95,2.97-5.71,1.48l-6.92-4c-1.38-4.28-2.2-6.23-5.23-9.52,2.39-1.5,4.65-2.79,7.1-4.17h0Z"/>
        <path class="cls-1" d="M157.53,157.17c.51.46,1.24,2.82,1.53,3.55,2.04,5.03,3.18,8.16,3.78,13.49l-8.03-4.52c-3.05-1.49-6.83-3.7-9.88-5.35,4.15-2.47,8.35-4.85,12.6-7.16h0Z"/>
        <path class="cls-1" d="M147.23,169.67c2.81,1.2,10.56,5.8,13.61,7.49-4.15,2.27-8.37,4.74-12.49,7.08l-7.17,4.12c-.23-1.78-.5-3.55-.79-5.32,6.11-2.62,10.83-6.4,6.85-13.37h-.01Z"/>
        <path class="cls-1" d="M207.73,125.53c1.58.79,4,3.02,5.62,3.51,4.13,1.24,14.83,2.09,9.06,8.99-3.54,2.16-6.69,1.77-10.58.99-1.25-4.46-2.73-9.05-4.1-13.49h0Z"/>
        <path class="cls-1" d="M185.6,174.22c3.38,6.13,3.85,8.86,11.91,9.49l-6.05,3.47-2.42,1.46c-2.82-1.5-5.37-2.86-8.09-4.54,2.65-3.33,3.24-5.89,4.66-9.88h-.01Z"/>
        <path class="cls-1" d="M188.71,192.9c.69.26,6.25,3.33,7.02,3.78,4.13,2.45,10.01,5.17,13.83,7.9l-.07.43c-3.12.85-13.58-10.04-21.83-8.26l-.39.09c-5.52,2.21-13.28,7.76-18.45,9.81-.79,0-1.26-.39-1.96-.8v-.34c6.88-4.24,14.77-8.47,21.86-12.6h0Z"/>
        <path class="cls-1" d="M206.46,249.58c2.59,1.13,3.49,1.47,6.26,1.57.5,1.66,1.27,3.5,1.9,5.14-1.28.79-4.39,3.07-5.67,2.72-3.2-1.76-6.37-3.55-9.53-5.37l7.04-4.06h0Z"/>
        <path class="cls-1" d="M255.86,263.04l.14.13c.32,1.61-.83,6.05-1.73,7.58-2.01,3.39-4.97,3.81-8.29,1.75-1.14-1.22-1.5-1.9-2.33-3.3,3.23-2.14,7.8-3.35,12.21-6.16h0Z"/>
        <path class="cls-1" d="M71.27,215.68c2.66,1.21,7.96,4.41,10.61,5.96l-3.98,2.3-6.58,3.79-.06-12.06h.01Z"/>
        <path class="cls-1" d="M270.57,170.7c.18.75-1.98,7.46-2.34,8.78-2.42,1.15-2.63,2.38-5.09.86-5.29-5.98,3.27-8.07,7.43-9.64Z"/>
        <path class="cls-1" d="M95.24,217.85c.08.04.17.07.25.11,3.78,3.33,5.68,6.19,6.9,10.81l-3.94-2.12c-3.13-1.69-6.24-3.43-9.32-5.22,2.06-1.13,4.1-2.38,6.11-3.58Z"/>
        <path class="cls-1" d="M71.2,245.72c1.98.93,6.3,3.57,8.37,4.75-.86.54-1.94,1.12-2.84,1.63-1.8,1.06-3.65,2.09-5.46,3.13.07-2.99-.04-6.49-.07-9.51h0Z"/>
        <path class="cls-1" d="M140.61,170.14c4.02,1.64,5.02,4.26,1.56,7.34-.66.34-1.04.47-1.73.73-2.34-.86-.38-6.25.18-8.07h0Z"/>
        <path class="cls-1" d="M278.57,212.28c3.39,1.69,4.71,4.45,5.59,7.9-4.82.04-5.26-4.18-5.59-7.9Z"/>
        <path class="cls-1" d="M130.24,220.65c1.13,3.73-1.21,7.31-4.91,8.37-.15-2.95,2.75-6.57,4.91-8.37Z"/>
        <path class="cls-1" d="M206.47,172.97c1.63.64,3.56,1.93,5.02,2.89l-3.9,2.19-3.39,1.89c1.32-2.61,1.68-4.14,2.27-6.96h0Z"/>
        <path class="cls-1" d="M257.15,199.73c1.12.58,3.32,1.4,3.54,2.65l-.75.58c-.66.37-1.69.84-2.4,1.19-.07-1.6-.2-2.84-.39-4.42Z"/>
        <path class="cls-1" d="M215.78,259.9c.52.79,1.18,2.21.72,3.08l-.77-.17c-.79-.45-1.37-.66-1.85-1.42.45-.89.85-.88,1.9-1.5h0Z"/>
        <path class="cls-1" d="M212.76,206.65c1.43.21,3.52,1.41,4.14,2.76-1.54-.23-3.75-1.12-4.14-2.76Z"/>
      </g>
    </g>
  </g>
</svg>