<?xml version="1.0" encoding="UTF-8"?>
<svg id="Layer_2" xmlns="http://www.w3.org/2000/svg" version="1.1" viewBox="0 0 367.3 440.7">
  <!-- Generator: Adobe Illustrator 30.0.0, SVG Export Plug-In . SVG Version: 2.1.1 Build 48)  -->
  <defs>
    <style>
      .st0 {
        fill: #efadff;
      }

      .st1 {
        fill: #fff;
      }
    </style>
  </defs>
  <g id="Layer_1-2">
    <g>
      <path d="M189,.2c9.6-1.1,15.5,3.5,23.5,7.9l18.2,10,58,32.1,48.9,27c6,3.3,12.2,6.4,18,9.9,12.3,7.5,11.9,19.2,11.8,31.6v108.2c0,2.2,0,4.4-.2,6.6-1,12-13,16.3-22.2,21.5l-24.8,14.2-99.7,57.4c-5.9,3.4-11.8,6.9-17.7,10.3-10.6,6.2-11.9,7.5-24.2,7.5-4.6-.5-8-1.4-12.1-3.7-10-5.5-20-11-30-16.5l-74.2-41c-11.5-6.4-23-12.7-34.6-18.9-8.7-4.7-24-10.7-26.4-21.4-1.9-8.3-1.1-19.8-1.1-28.6v-37.7s0-42.3,0-42.3c0-5.1-.6-25.9,1.2-27.1,4.3-2.9,30.1-17.6,35.4-20.7l92.5-53.4,34.3-20c6.4-3.7,18.4-11.6,25.3-13h0Z"/>
      <path class="st0" d="M194.4,9.4c4.1,1.4,11.4,5.9,15.6,8.2l34.5,19,66.7,36.8c12.9,7.1,25.8,14.1,38.6,21.3,9.7,5.4,8.1,16,8.1,25.4v103.3c-12-7-25.5-14.1-37.7-20.8-.3-.2-1-.6-.9-.9,2.3-7.4,1.7-13.1-1.2-20.4-1.7-4.2-5.7-10.5-6.8-15.3-2.7-11.9,1-25-11.1-33.1-4.2-2.8-9.3-3.8-14.2-2.7-5.5,1.2-10.2,4.6-13.1,9.3-5.4,8.5-3.6,15.8-1.5,24.6-2.3,3.4-6.3,3.9-10.3,5.9-12.1-6.2-23.9-13.3-35.9-19.6-3.9-2-8.2-4.4-11.9-6.7,5.1.2,10.3.4,13.7-4.3,1.2-1.6,1.7-4.4,1.2-6.4-1.7-7.8-10.9-5.8-16-9.8-8.2-6-4.5-9.7-6.4-18.2-1.7-7.9-4.8-12.2-11.2-16.6-.3-26.2,0-52.8,0-79.1h0Z"/>
      <path class="st0" d="M189.9,9.5h.2c.4.6.4.6.4,1.5,0,8.1,0,16.3,0,24.4v51.5c-13.5-3.1-22.8,6.3-24.9,19-.6,3.7-.4,8.4-1.8,11.9-1.8,4.6-6.9,7.7-9.6,11.7-4.1,5.8-6.1,15.6-1.3,21.5.8,1,2,1.8,3.1,2.5l-13.4,7.6c.2-9-4-17.8-12.4-21.7-4.9-2.2-10.4-2.4-15.4-.5-14.5,5.5-11.3,20.6-14.1,32.2-1,4.2-7,13.4-9.2,18.3-5.6,3.6-14.3,8.3-20.3,11.7.2-7.2,0-15.1.1-22.3v-20.3c0-24.4-.9-21.8-21.7-33l-31.8-17c11.1-7,25-14.5,36.5-21.2l73.4-42.3,40.5-23.5c5.5-3.2,16.3-9.9,21.7-12.1h0Z"/>
      <path class="st0" d="M9.6,114.5c16.3,9.8,34.1,17.9,50.3,27.8,2.6,1.6,1.8,13.8,1.8,17.1v106c6.4,4.1,16.2,9.1,23.2,12.9l36.7,20.2,32.4,17.9c5.2,2.9,12.9,7.5,18,9.9,2.5,1.2,5.2,1.9,8,2.1,9.1.7,18.2-6.2,25.9-10.6l25.6-14.8,73.3-42.2,33.5-19.3c4.8-2.8,16.1-8.8,19.6-11.8-.2,2.2-.3,3.6-.9,5.7-1.1,1.9-1.9,2.8-3.8,4-5.9,3.4-11.8,6.8-17.8,10.2l-51.7,29.8-62.1,35.8-18.1,10.4c-7.7,4.5-16.8,11.6-26.3,9-7.1-1.9-14.7-7.1-21.4-10.7l-45.1-24.9-65.1-35.8c-5.5-3-29-15-32.3-18.3-2.1-2.1-2.9-4.2-3.3-7.1-.6-4.8-.3-9.9-.3-14.8v-108.5s0,0,0,0Z"/>
      <path class="st1" d="M184.5,90.6c2.3-.1,4.6.3,6.7,1.2,12.2,5.2,10.1,20.2,11.5,30.5,1.7,10.1,7.7,19.9,5.1,30.5-1.3,5.5-4.2,10-4.7,15.8-.3,3.3-1.3,9.6-5.1,10.5-5.4,1.2-6.9-3.3-8-7.4,1.7-.5,10.3-2.4,9.3-5.8-.2-.7-.7-.9-1.3-1.1-1.9.1-5.7,1.7-7.5,2.2-6.6,1.5-8.5,4.1-10.4,10.4-.5,1.5-1.3,3.1-2.5,4.4-1.7.9-4.5,1.9-6.3.7-4.7-2.9-3.4-10.5-4.9-15.2-1.5-4.6-3.4-8.6-4.6-13.1,9.1-2.6,4.6-9.2,10.7-14.2.5-.1.6-1.7.4-1.9-4.8-6.4-7.5,7-8.9,8.9-6.4,8.9-11.5-3.6-8.3-10.1,1.8-3.6,2.3-5.4,5.4-8.4,2.6-2.6,5.6-5.4,7.1-8.8,2.7-7.6.8-16.1,6.1-23,2.9-3.7,5.9-5.3,10.5-6h0Z"/>
      <path d="M195,105.6c3.8.6,3.9,5.3,1,7.6-3.8-.7-3.8-5.5-1-7.6Z"/>
      <path d="M183.8,106.8c3.7,1.1,3.6,5.4.8,7.6-.8-.3-1.6-.4-2.1-1.2-.7-1-.9-2.2-.7-3.3.3-1.6.8-2.2,2-3.1h0Z"/>
      <path class="st1" d="M235.1,183.6c3.1-.3,6.9.3,9.5,2.1,10.5,7,7.2,20.5,10,30.4,3.6,12.7,10.7,22.9,4.5,36.4-3.9,9.1-11.9,8.9-19,14.1-4.3,3.1-4.2,18.3-13.8,12.9-3.4-1.9-4.3-11-4.8-14.7-1.1-5.7-2.8-9.2-4.7-14.5,2.2-.8,4.3-2,6.1-3.4,2.8-2.1,10.1-9.1,6.9-12.8-2.2-.1-3.8,2.5-4.8,4.3-2.6,4.5-10.4,10.8-15.8,7.9-1.1-.6-1.9-1.6-2.2-2.8-1.2-4.9,6.3-8.2,8.4-12.6.7-1.1,2.9-5.3,2.6-6.4-1.4-3.9,2.4-7.3,2.7-10.9,1.1-11.4-1.2-27.3,14.3-29.9h0Z"/>
      <path class="st1" d="M287.2,134.4c1.1-.1,2.5-.2,3.5-.1,3.8.2,7.2,1.9,9.7,4.8,7,8.1,3.6,18.7,6.4,28.1,2.8,9.5,10,16.9,9.4,27.4-.6,10.5-7.7,12.4-11.9,20.5-1.8,3.6-1.8,9.7-5,12.4-1.2,1.1-2.8,1.3-4.4,1.2-7-.7-5.4-11.1-8.8-15.2-4-4.7-6.7-5.6-10.7-11-1.1-1.8-1.5-2.6-2.3-4.5,7.3,0,13-1.7,18.9-6.1,1.9-1.4,4.1-3.2,2.1-5.6-1.7-.8-2.5-.2-3.8,1-3.5,3.1-4.4,3.9-9,5.3-5.3,1.7-17.7,2.1-14.2-7,1.7-1.5,5.1-2.5,7.2-3,2.7-.7,13-6.2,7.2-9.1-.5-.3-6.7,4.7-8.6,5.6,2.8-8.9,4.2-12,1.5-21.2-1.5-5.4-.6-11.3,2.3-16.1,2.6-4.2,6-6.2,10.6-7.3h0Z"/>
      <path d="M278.2,147.7c4.2.8,4.1,4.7,1.6,7.4-4.5-.1-4.1-5.1-1.6-7.4Z"/>
      <path class="st1" d="M119.7,142.1c5-.6,9.6,1,13.1,4.6,4.6,4.7,6.3,12.1,4.7,18.4-.9,3.7-2.7,7.3-2.6,11.2,0,3.7.9,7.1,1.7,10.7.5,2.7.7,4.7.7,7.5-2.5-2.2-4.2-4-5.4-7.3-.8-2.1-1.6-5.4-4.4-3-3.1,6.4,9.5,14.1,9.3,17.4-.8,11.4-18.7.3-19.8-6.5-.6-4-6.3-4-4.8-.1,2.3,6,6.1,10.4,11.8,13.6,3.8,1.8,5.5,2.1,9.5,2-3.1,4.8-6.5,6.4-9.7,10.6-2.5,3.9-3.2,8.3-5.2,12.4-1.6,3.3-5,5.4-8.5,3.4-3.2-1.8-2.8-7.5-3.7-10.8-2.2-8-11.2-12-12.6-20.6-3.2-13.3,8.2-22.5,11.4-33.8,3.2-11.1-1.7-25.9,14.5-29.5h0Z"/>
      <path d="M131.4,156c4.3.1,4.2,5.1,1.7,7.5-4.1-.1-3.8-5.1-1.7-7.5Z"/>
      <path class="st1" d="M189.5,200.1c3.1,0,22.8,11.6,26.6,13.9-.7,1.9-1.4,3.8-2.2,5.7-6.2,3.3-12.3,6.9-18.5,10.4-2.3,1.3-4.2,2.5-6.8,1.8-1.3-.6-5.8-3.1-6.8-3.8-2.4-1.6-20.4-10.6-20.6-12,1.7-1.9,24.9-14.4,28.3-16h0Z"/>
      <path class="st0" d="M158.4,265c2,.6,18.6,10.1,21.1,11.6l-22.4,12.7c-1.3,0-18.6-10-21.1-11.4,7.5-4.3,15-8.6,22.4-13h0Z"/>
      <path class="st0" d="M134,251.3c2.5.6,17.7,9.8,20.9,11.6l-22.6,13c-.5,0-18.8-10.5-20.8-11.6l22.6-12.9h0Z"/>
      <path class="st0" d="M183,278.8c1.3.5,5.4,2.9,6.8,3.7l13.7,7.8-22.7,13c-4.5-3.1-15.3-8.6-20.5-11.5,7.4-4,15.4-8.7,22.7-13h0Z"/>
      <path class="st0" d="M106.4,239.4c3.4,2.5,6,2.9,10,1.9,4.1,2.1,10.2,5.5,14.1,7.9-6.6,3.6-13.4,7.6-20,11.3l-2.8,1.5c-6.9-3.9-13.9-7.6-20.7-11.6,6.5-3.4,12.9-7.6,19.4-11.1h0Z"/>
      <path class="st0" d="M85.3,223.8c1.5,0,15.3,8.1,17.8,9.6l1.1,2.9c-5.5,3-11.2,6.5-16.7,9.7l-4.2,2.4c-4-2.2-8.1-4.4-12-6.8,0-3.2,0-6.5,0-9.7,4.7-2.6,9.4-5.3,14.1-8.1h0Z"/>
      <path class="st0" d="M163.5,179.7c.4.3.5.6.7,1,2.8,5.7,6.9,7.4,13.1,5.7,2.5,1.2,5.4,3,7.9,4.4l-21.5,12.2c-.5.3-.4.2-1,.4-2.3-1-5.6-2.9-7.9-4.1-4.3-2.3-8.6-4.7-12.9-7.1,7.2-4.1,14.4-8.1,21.6-12.4h0Z"/>
      <path class="st0" d="M179.6,252.8c5,2.9,10.4,7,15.9,2.9l10.3,5.7-17.5,10.1-5,3c-7-4-14-7.9-21.1-11.7l17.4-10h0Z"/>
      <path class="st0" d="M209.4,263.6c1.1.1,6.9,3.4,8.2,4.2.6,4.5,1.2,8.4,3.7,12.2-4.6,2.8-9.3,5.5-14,8.1l-4.9-2.7c-5.1-2.9-10.3-5.8-15.5-8.6l22.6-13.1h0Z"/>
      <path class="st1" d="M160.9,221.2c1.9.8,4.4,2.4,6.3,3.4,6.8,3.5,14.4,8.5,21.1,11.5-.2,4.9,0,11.4,0,16.5l-.3.2c-2.2-.9-25.8-14-27-15.1-.2-5.3,0-11.1,0-16.5h0Z"/>
      <path class="st0" d="M207.3,292.2c5.9,3.4,11.9,6.7,17.9,10l-22.8,13.1-17.8-10c7.5-4.1,15.4-8.8,22.8-13.1h0Z"/>
      <path class="st0" d="M286.4,247c2.1.5,15.1,8.1,17.9,9.6-7.1,4.4-15.5,8.9-22.8,13.1-1.7-.5-15.4-8.5-17.6-9.8,7.2-3.8,15.4-8.8,22.5-12.9h0Z"/>
      <path class="st0" d="M312.5,231.8c1.6.5,15.5,8.6,17.8,9.8-7.5,4.2-14.9,8.5-22.3,12.8-6-3.1-12-6.5-17.9-9.7,7.5-4.3,15-8.6,22.4-12.9h0Z"/>
      <path class="st0" d="M136.6,222.7c1,0,18,9.9,20.2,11.2-4.7,3.2-13.4,7.9-18.6,10.9l-4.1,2.3c-4.4-2.7-9.6-5.5-14.2-8,1.9-2.4,2.3-3.4,3.4-6.1,11.7-.2,7.5-7.2,13.2-10.3h0Z"/>
      <path class="st0" d="M338.4,216.9c.6.2,4.3,2.1,4.8,2.5,2,1.5,11.6,5.6,11.9,7.4-2.4,2.6-16.7,10.1-21,12.7-5.6-3.3-12-6.7-17.8-9.8,7.4-4.3,14.7-8.4,22-12.8Z"/>
      <path class="st0" d="M107.4,266.5c1.2,0,18.3,10.1,21.3,11.6-5.9,3.3-11.8,6.7-17.6,10.2-6.2-2.9-14.9-8.3-21.3-11.6,4.9-3.2,12.3-7.1,17.6-10.2h0Z"/>
      <path class="st0" d="M240.1,163.4c1.3,0,16,8.4,18.1,9.6-.8,1.9-.9,2.1-1,4.2-2.3,1.3-7.3,4.4-9.5,5.3-3.5-2.1-5.2-2.7-9.2-3.2-3.5-.3-6.5.2-9.6,1.9-3.4-1.8-6.9-3.6-10.2-5.5,7.2-4,14.3-8.1,21.4-12.2h0Z"/>
      <path class="st0" d="M132.1,280.2c1,.3,5.8,3.1,7,3.8,4.6,2.7,9.2,5.3,13.9,7.8-5.5,3.4-11.8,6.9-17.4,10.1-6.3-3.9-14.3-8-20.9-11.5,5-3.3,12-6.9,17.4-10.2h0Z"/>
      <path class="st0" d="M82.8,252.7c1.4.1,18.4,10,21.2,11.6-5.1,2.8-10.1,5.7-15.1,8.6l-2.8,1.7c-5.5-3.2-11.4-6.3-17-9.4,2.7-2,2.3-2.8,2.2-5.9,3.9-2.1,7.7-4.4,11.5-6.6h0Z"/>
      <path class="st0" d="M156.9,238.2c.4.4,1.1,2.4,1.7,2.9,5,3.6,11.6,6.6,17,9.8l-11.3,6.6c-1.6,1-3.5,2.1-5.2,3-.7.3-.7.1-1.4-.2-6.4-3.8-13.3-7.5-19.8-11.1l19.1-11h0Z"/>
      <path class="st0" d="M156.5,294c6.8,3.5,13.9,7.7,20.7,11.4-5.1,3.2-11.9,6.9-17.2,10-1-.4-5.2-2.8-6.4-3.5-4.7-2.7-9.4-5.3-14.2-7.8,1.4-1,4.6-2.7,6.2-3.7,3.7-2.1,7.3-4.2,10.9-6.4h0Z"/>
      <path class="st0" d="M238.5,280c3.9,1.9,9.1,5,12.9,7.2-7.3,3.9-15.4,8.8-22.6,13-1.3-.8-2.8-1.6-4.2-2.4-4.5-2.5-9.2-5-13.6-7.6l12.7-7.3c5.5,3.7,11,2.5,14.7-2.8h0Z"/>
      <path class="st0" d="M215.1,177.8c3.4,1.8,6.7,3.5,10,5.5-5.6,5.2-7,9.5-8.1,16.9l-3.4,2.1-7.2-4c-4.6-2.4-9.2-5-13.8-7.5,7.6-4.2,15.1-8.6,22.6-12.9h0Z"/>
      <path class="st0" d="M216.1,150c2.6.7,17.5,9.4,20.6,11.2-3.6,2.3-9.1,5.2-13,7.4-2.8,1.7-5.7,3.3-8.6,4.9-2.6-1.4-5.2-2.9-7.8-4.4,1.3-6.2,4.1-11.7,4.9-16.8l3.8-2.3h0Z"/>
      <path class="st0" d="M180.5,307.7c1.3,0,16,8.6,18.2,9.9-6.5,3.2-9,6.5-16.7,7.3-6.9.2-12.5-3.9-18.4-7.3,4.3-2.9,12.1-7.1,16.9-9.8h0Z"/>
      <path class="st0" d="M279.7,223.6c1.5.9,3.7,1,5.4.9,1.1,2.8,2.2,5,4.8,6.8,2.3,1.5,5.1,2.1,7.8,1.6,3.6-.7,5.3-2.7,7.2-5.6,1.4.8,2.7,1.6,4.1,2.4-3.5,2.3-9.1,5.2-12.9,7.4-3,1.9-6.4,3.7-9.5,5.6-6.8-3.7-13.6-7.5-20.3-11.4,4.6-2.5,9-5.1,13.5-7.7h0Z"/>
      <path class="st0" d="M317.3,205.2c5.6,3.3,11.6,6.4,17.3,9.7-4.2,2.8-10.5,6.1-15,8.7-2.3,1.3-4.6,2.7-6.9,4.1-2.2-1.2-4.4-2.5-6.6-3.7,2.9-12.4,5.2-9.4,11-18.3l.2-.4h0Z"/>
      <path class="st0" d="M89.1,195.2c.4.6-.3,5.1-.2,6.2.1,5.1,1.4,9.1,4.3,13.4-2.5,1.6-5.1,3.1-7.6,4.7-2-1-4.1-2.2-6-3.3l-8.4-4.7c0-1.9,0-4,0-5.9,5.2-3.3,12.4-7.1,17.8-10.3Z"/>
      <path class="st0" d="M260.6,262.3c5.7,3.3,11.5,6.4,17.2,9.7-6.9,3.9-15.5,9.1-22.6,12.8-.4.2-1-.3-1.5-.6-2.1-1.3-13.6-7-13.6-8.6.5-.9.6-1.3,1.4-2,2,.9,2.3,3.1,5.4,3.8,11.2,2.5,12.3-7.1,13.8-15.3h0Z"/>
      <path class="st0" d="M264.8,204.4c1.4.3,7.7,3.8,9.2,4.6.3,5,0,8,2.8,12.2-2.7,1.6-5.8,3.4-8.6,4.9l-4.5,2.6c-1.5-5.4-4-10.5-5-16-.3-1.5-.5-3-.8-4.5l6.9-3.8h0Z"/>
      <path class="st1" d="M212.1,225.3h.4c1.4,4.1-7.8,9.9-9.1,13.2-1.3,3.2-.8,5,.4,8.1-3.3,2.1-7.2,4.2-10.5,6.2-.3.2-.1.1-.6,0-.5-1.8-.2-14-.3-16.6,5.1-2.3,14.7-8,19.8-10.9h0Z"/>
      <path class="st0" d="M141.6,196.2c4.5,2.1,12.9,6.9,17.4,9.5-4.1,2.3-8.2,4.6-12.3,7l-10,5.8c-2.1-1.3-2.2-2.1-.7-4.3,5-7.1,5-9.8,5.6-18h0Z"/>
      <path class="st0" d="M265.3,235.1c1.4.6,4.6,2.5,6,3.3l11.5,6.5c-3.4,2-7.1,4.1-10.5,6-3.5,2.1-7.1,4.1-10.7,6.1,4.2-7.1,5.2-13.8,3.6-21.9h0Z"/>
      <path class="st0" d="M162.6,207.8c.7,0,1.5.4,1.9,1-1.1,1.9-7.4,3.3-7.5,7.8-.1,4.4,0,8.8,0,13.2-2.5-1.1-6.6-3.6-9-5l-7.7-4.3c7.4-4,15-8.5,22.3-12.6h0Z"/>
      <path class="st0" d="M257.9,181.2s2.6,2.7,4.6,3.9c-1.8,6.3,1.3,9.1,6.2,12.3-2.4,1.8-3,3-5.7,1.5l-6.9-4c-1.4-4.3-2.2-6.2-5.2-9.5,2.4-1.5,4.6-2.8,7.1-4.2h0Z"/>
      <path class="st0" d="M157.5,157.2c.5.5,1.2,2.8,1.5,3.6,2,5,3.2,8.2,3.8,13.5l-8-4.5c-3.1-1.5-6.8-3.7-9.9-5.4,4.1-2.5,8.4-4.9,12.6-7.2h0Z"/>
      <path class="st0" d="M147.2,169.7c2.8,1.2,10.6,5.8,13.6,7.5-4.1,2.3-8.4,4.7-12.5,7.1l-7.2,4.1c-.2-1.8-.5-3.6-.8-5.3,6.1-2.6,10.8-6.4,6.9-13.4h0Z"/>
      <path class="st0" d="M207.7,125.5c1.6.8,4,3,5.6,3.5,4.1,1.2,14.8,2.1,9.1,9-3.5,2.2-6.7,1.8-10.6,1-1.2-4.5-2.7-9.1-4.1-13.5h0Z"/>
      <path class="st0" d="M185.6,174.2c3.4,6.1,3.9,8.9,11.9,9.5l-6.1,3.5-2.4,1.5c-2.8-1.5-5.4-2.9-8.1-4.5,2.6-3.3,3.2-5.9,4.7-9.9h0Z"/>
      <path class="st0" d="M188.7,192.9c.7.3,6.2,3.3,7,3.8,4.1,2.4,10,5.2,13.8,7.9v.4c-3.2.9-13.7-10-21.9-8.3h-.4c-5.5,2.3-13.3,7.8-18.4,9.9-.8,0-1.3-.4-2-.8v-.3c6.9-4.2,14.8-8.5,21.9-12.6h0Z"/>
      <path class="st0" d="M206.4,249.6c2.6,1.1,3.5,1.5,6.3,1.6.5,1.7,1.3,3.5,1.9,5.1-1.3.8-4.4,3.1-5.7,2.7-3.2-1.8-6.4-3.6-9.5-5.4l7-4.1h0Z"/>
      <path class="st0" d="M255.8,263h.1c.3,1.7-.8,6.2-1.7,7.7-2,3.4-5,3.8-8.3,1.8-1.1-1.2-1.5-1.9-2.3-3.3,3.2-2.1,7.8-3.4,12.2-6.2h0Z"/>
      <path class="st0" d="M71.2,215.7c2.7,1.2,8,4.4,10.6,6l-4,2.3-6.6,3.8v-12.1c0,0,0,0,0,0Z"/>
      <path class="st0" d="M270.5,170.7c.2.8-2,7.5-2.3,8.8-2.4,1.1-2.6,2.4-5.1.9-5.3-6,3.3-8.1,7.4-9.6Z"/>
      <path class="st0" d="M95.2,217.9c0,0,.2,0,.2.1,3.8,3.3,5.7,6.2,6.9,10.8l-3.9-2.1c-3.1-1.7-6.2-3.4-9.3-5.2,2.1-1.1,4.1-2.4,6.1-3.6Z"/>
      <path class="st0" d="M71.2,245.7c2,.9,6.3,3.6,8.4,4.8-.9.5-1.9,1.1-2.8,1.6-1.8,1.1-3.7,2.1-5.5,3.1,0-3,0-6.5,0-9.5h0Z"/>
      <path class="st0" d="M140.6,170.1c4,1.6,5,4.3,1.6,7.3-.7.3-1,.5-1.7.7-2.3-.9-.4-6.2.2-8.1h0Z"/>
      <path class="st0" d="M278.5,212.3c3.4,1.7,4.7,4.4,5.6,7.9-4.8,0-5.3-4.2-5.6-7.9Z"/>
      <path class="st0" d="M130.2,220.6c1.1,3.7-1.2,7.3-4.9,8.4-.2-2.9,2.8-6.6,4.9-8.4Z"/>
      <path class="st0" d="M206.4,173c1.6.6,3.6,1.9,5,2.9l-3.9,2.2-3.4,1.9c1.3-2.6,1.7-4.1,2.3-7h0Z"/>
      <path class="st0" d="M257.1,199.7c1.1.6,3.3,1.4,3.5,2.6l-.8.6c-.7.4-1.7.8-2.4,1.2,0-1.6-.2-2.8-.4-4.4Z"/>
      <path class="st0" d="M215.8,259.9c.5.8,1.2,2.2.7,3.1l-.8-.2c-.8-.5-1.4-.7-1.9-1.4.4-.9.9-.9,1.9-1.5h0Z"/>
      <path class="st0" d="M212.7,206.6c1.4.2,3.5,1.4,4.1,2.8-1.5-.2-3.8-1.1-4.1-2.8Z"/>
    </g>
  </g>
</svg>