<?xml version="1.0" encoding="UTF-8"?>
<svg id="Layer_2" data-name="Layer 2" xmlns="http://www.w3.org/2000/svg" viewBox="0 0 239.63 50.76">
  <g id="Layer_2-2" data-name="Layer 2">
    <g id="Layer_1-2" data-name="Layer 1-2">
      <path d="M102.39.3c35.07-1.11,82.1.55,115.5,10.65,6.28,1.9,13.32,4.11,18.41,8.41,1.67,1.42,3.18,3.26,3.32,5.54.13,2.06-1,4.03-2.34,5.51-11.64,12.74-60.35,17.79-77.77,19.05-7.39.53-14.81.65-22.21.85-.11.01-.22.03-.33.04-7.84.76-18.26.26-26.3.07-24.65-.59-88.64-3.44-106.86-18.6C1.96,30.28.16,28.12.01,25.6c-.12-1.96.83-3.48,2.1-4.9C16.5,4.61,80.57,1.36,102.39.32v-.02Z"/>
    </g>
  </g>
</svg>